<?xml version="1.0" encoding="utf-8"?>
<!-- Generator: Adobe Illustrator 26.0.0, SVG Export Plug-In . SVG Version: 6.00 Build 0)  -->
<svg version="1.1" id="Layer_1" xmlns="http://www.w3.org/2000/svg" xmlns:xlink="http://www.w3.org/1999/xlink" x="0px" y="0px"
	 viewBox="0 0 495.16 726.94" style="enable-background:new 0 0 495.16 726.94;" xml:space="preserve">
<style type="text/css">
	.st0{fill:#F7F7F7;stroke:#000000;stroke-width:2;stroke-miterlimit:10;}
	.st1{fill:#878787;}
	.st2{fill:none;stroke:#000000;stroke-width:2;stroke-miterlimit:10;}
	.st3{fill:#F7F7F7;}
	.st4{fill:#FFFFFF;stroke:#000000;stroke-width:3;stroke-miterlimit:10;}
	.st5{fill:#F7F7F7;stroke:#000000;stroke-width:3;stroke-miterlimit:10;}
	.st6{fill:#FFFFFF;}
	.st7{fill:none;stroke:#000000;stroke-width:3;stroke-miterlimit:10;}
	.st8{fill:#282828;}
	.st9{fill:none;}
	.st10{fill:#A35625;stroke:#282828;stroke-miterlimit:10;}
	.st11{fill:#515251;}
	.st12{fill:#ED7725;stroke:#000000;stroke-miterlimit:10;}
	.st13{fill:#A09F9F;stroke:#282828;stroke-width:0.75;stroke-miterlimit:10;}
	.st14{fill:#D8D8D8;}
	.st15{fill:#7F4D1F;stroke:#282828;stroke-miterlimit:10;}
	.st16{fill:#4A494A;stroke:#282828;stroke-miterlimit:10;}
	.st17{fill:#FFFFFF;stroke:#282828;stroke-miterlimit:10;}
	.st18{fill:#E8E8E8;stroke:#282828;stroke-width:0.75;stroke-miterlimit:10;}
	.st19{fill:#B7B7B7;stroke:#282828;stroke-miterlimit:10;}
	.st20{fill:none;stroke:#000000;stroke-miterlimit:10;}
	.st21{fill:#A35625;}
	.st22{fill:#828282;}
	.st23{fill:none;stroke:#606161;stroke-width:2;stroke-miterlimit:10;}
</style>
<g>
	<path class="st8" d="M390.43,233.17c0,0,33.92,1.9,48.33,11.53s30.37,37.47,34.36,41.9l18.4,2.75l-24.61-33.12l-73.6-38.86
		L390.43,233.17z"/>
	<path class="st9" d="M331.23,29.64c0,0-12.8,5.09-12.69,16.94c4.48,0.47,9.17,0.74,13.98,0.73
		C332.88,39.28,332.56,32.88,331.23,29.64z"/>
	<path class="st9" d="M311.26,50.04c-2.23,1.81-4.09,5.19-4.84,9.28c-1.22,6.59,0.92,12.51,4.77,13.23s7.96-4.06,9.18-10.65
		c0.8-4.36,0.14-8.41-1.51-10.87C318.93,57.98,313.68,52.81,311.26,50.04z"/>
	<path class="st9" d="M247.82,41.51c-3.88,0.62-6.17,6.42-5.13,12.96c1.04,6.54,5.03,11.35,8.9,10.73s6.17-6.42,5.13-12.96
		C255.68,45.7,251.7,40.89,247.82,41.51z"/>
	<path class="st10" d="M380.5,19.66c-3.08,10.52-12.64,18.86-23.94,24.19c1.62,23.79,2.21,53.83-3.31,72.58
		c-1.39,4.71-2.73,12.01-4.04,21.17l17.66-5.21l72.15-35.91C495.32,58.84,385.18,3.7,380.5,19.66z"/>
	<path class="st10" d="M332.51,47.31c-4.8,0.01-9.49-0.26-13.98-0.73c0.01,0.65,0.04,1.32,0.13,2.02c0.12,0.94,0.17,1.74,0.18,2.43
		c1.65,2.46,2.32,6.51,1.51,10.87c-1.22,6.59-5.33,11.36-9.18,10.65s-5.99-6.63-4.77-13.23c0.75-4.08,2.62-7.46,4.84-9.28
		c-0.73-0.83-1.2-1.44-1.2-1.44s0.08-1.19,0.23-3.12c-17.6-2.83-30.3-7.93-30.3-7.93c-1.48-12.63-3.68-22.69-8.55-21.88
		c-11.98,2-0.98,22.95-44.67,27.93c-43.69,4.99-51.09-20.95-61.06-13.97c-9.98,6.98-32.92-2-52.87,10.97
		c-19.95,12.97-8.41,29.93-8.41,29.93c18.52,17.96,94.21,37.91,94.21,37.91l47.39,34.92l46.38,10.97l24-7.07
		c1.61-14.34,3.09-24.79,4.31-28.84C325.52,102.43,331.52,68.93,332.51,47.31z M251.6,65.2c-3.88,0.62-7.86-4.19-8.9-10.73
		c-1.04-6.54,1.25-12.35,5.13-12.96c3.88-0.62,7.86,4.19,8.9,10.73C257.77,58.78,255.47,64.59,251.6,65.2z"/>
	<path class="st11" d="M311.26,50.04c1.37-1.12,2.87-1.64,4.34-1.37c1.31,0.24,2.41,1.09,3.26,2.35c-0.01-0.69-0.06-1.48-0.18-2.43
		c-0.09-0.7-0.12-1.37-0.13-2.02c-2.85-0.3-5.6-0.67-8.25-1.1c-0.15,1.93-0.23,3.12-0.23,3.12S310.53,49.21,311.26,50.04z"/>
	<path class="st9" d="M204.04,70.05c-3.92,0-7.1,5.37-7.1,12s3.18,12,7.1,12c3.92,0,7.11-5.37,7.11-12S207.97,70.05,204.04,70.05z"
		/>
	<path class="st9" d="M302.93,107.69c-1.5,8.12,0.53,15.51,4.6,18.17l-0.99-27.65C304.9,100.78,303.61,104.04,302.93,107.69z"/>
	<path class="st9" d="M319.15,121.39c1.8-2.65,3.23-6.09,3.95-9.98c1.51-8.17-0.55-15.61-4.68-18.22c0.03,5.86,0.1,10.75,0.25,13.35
		C318.8,108.82,318.96,114.26,319.15,121.39z"/>
	<path class="st12" d="M481.12,543.42c-11.79-53.87-38.08-127.7-42.09-153.64c-4-25.93-5.97-35.91-31.91-65.84
		c-25.94-29.93-69.83-97.77-69.83-97.77v-31.92c33.39-68.74,99.63-96.89,101.69-97.75c-27.91,9.95-45.84,1.97-58.49-15.98
		c-12.66-17.96-25.24-41.9-49.19-15.3c-4.26,4.75-8.6,9.74-12.89,14.71c-4.07,4.72-8.11,9.42-12.03,13.87
		c-15.11,17.16-28.43,30.53-34.95,26.63c-9.99-5.99,0.01-49.88-25.42-49.88c-25.44,0-42.4-11.98-68.6,0c-26.19,11.97-73,0-73,0
		c-1.43,11.97,19.39,27.93,35.35,25.93c15.96-1.99,61.85,59.86,87,63.85c25.15,3.99,26.73,3.99,30.72,11.97
		c3.99,7.98,32.31,23.95,32.31,23.95v27.93c-27.55,5.99-84.19,75.82-130.08,97.77c-45.89,21.94-81.8,77.81-107.74,149.64
		C26.03,543.42-9.89,523.47,3.33,607.27c13.21,83.8,52.63,93.77,101.08,103.75c48.45,9.98,91.22-3.99,149.08,11.97
		c57.86,15.96,115.72-27.93,185.54-39.9C508.85,671.11,492.92,597.29,481.12,543.42z M204.04,94.04c-3.93,0-7.11-5.37-7.11-11.99
		c0-6.63,3.18-12,7.11-12c3.92,0,7.1,5.37,7.1,12C211.14,88.67,207.96,94.04,204.04,94.04z M323.09,111.42
		c-0.72,3.89-2.14,7.33-3.94,9.98c0.67,25.95,1.55,74.36,1.55,74.36h-10.65l-2.51-69.9c-4.08-2.65-6.11-10.05-4.61-18.17
		c0.68-3.65,1.97-6.9,3.61-9.48c2.65-4.15,6.22-6.54,9.66-5.91c0.79,0.15,1.53,0.47,2.21,0.9
		C322.54,95.81,324.6,103.25,323.09,111.42z"/>
	<g>
		<path class="st13" d="M318.67,48.6c-5.65-2.32-8.62,0-8.62,0l-3.98,36.38l0.32,8.81c3.92-4.45,7.96-9.14,12.03-13.86
			C318.47,64.5,318.67,48.6,318.67,48.6z"/>
		<path class="st13" d="M319.15,121.39c-0.18-7.13-0.35-12.58-0.48-14.84c-0.15-2.61-0.22-7.49-0.25-13.35
			c-0.69-0.43-1.42-0.75-2.22-0.9c-3.43-0.63-7.01,1.75-9.66,5.9l0.99,27.65l2.51,69.9h10.65
			C320.71,195.76,319.82,147.35,319.15,121.39z"/>
	</g>
	
		<rect x="278.08" y="211.61" transform="matrix(0.9992 -0.0397 0.0397 0.9992 -8.3141 12.8443)" class="st14" width="82.27" height="8.26"/>
	<path class="st10" d="M305.79,44.73l-2.15,2.59l4.97,5.94c0,0,6.93-11.68,11.29-0.1s5.7-0.89,5.7-0.89l-3.16-5.43
		C315.07,46.21,309.54,45.4,305.79,44.73z"/>
	<path class="st8" d="M375.2,231.49l-1.39,3.24l-95.4,5.32l-21.42-9.49l27.71,2.18C284.68,232.73,359.97,229.81,375.2,231.49z"/>
	<polygon class="st15" points="370.54,193.58 278.05,196.91 256.98,204.22 256.98,230.55 278.05,238.14 375.2,231.49 	"/>
	<path class="st15" d="M386.51,230.83c0,0,24.61-1.33,45.89,7.32c21.28,8.65,36.27,39.24,42.57,47.22l16.56,3.99
		c0,0-31.86-60.52-56.47-73.49s-36.66-22.61-55.2-22.28L386.51,230.83z"/>
	<polygon class="st16" points="371.5,181.61 370.59,241.99 394.1,242.13 395.11,181.09 	"/>
	
		<rect x="278.08" y="208.43" transform="matrix(0.9992 -0.0397 0.0397 0.9992 -8.3141 12.8443)" class="st15" width="82.27" height="14.62"/>
	
		<rect x="278.08" y="211.61" transform="matrix(0.9992 -0.0397 0.0397 0.9992 -8.3141 12.8443)" class="st17" width="82.27" height="8.26"/>
	<polygon class="st15" points="269.39,221.69 278.4,224.67 277.82,210.07 269.39,211.54 	"/>
	<path class="st18" d="M356.56,43.85c-1.31-19.23-3.31-34.37-3.31-36.16c0-3.99-15.63-7.32-20.62-7.32
		c-4.99,0-16.29,10.31-18.29,12.97c-1.62,2.15-3.43,23.93-4.06,32.14c2.65,0.43,5.41,0.8,8.25,1.1
		c-0.1-11.85,12.69-16.94,12.69-16.94c1.33,3.24,1.65,9.64,1.28,17.68c-0.99,21.62-6.99,55.11-11.81,71.11
		c-1.22,4.06-2.7,14.51-4.31,28.84c-7.09,63.27-16.6,202.31-16.6,202.31c3.4,6.98,29.1,7.98,29.1,7.98
		c5.64-34.36,12.23-163.18,20.32-219.96c1.31-9.16,2.65-16.46,4.04-21.17C358.77,97.68,358.18,67.64,356.56,43.85z"/>
	<path class="st19" d="M328.89,357.56c0,0-14.93-12.84-15.27-18.16c-0.34-5.32,7.63-78.48,7.63-78.48l17.15-8.5
		C338.41,252.42,331.2,343.13,328.89,357.56z"/>
	<path class="st16" d="M304.77,269.84l31.88,5.38c0,0,21.01,51.24-15.98,51.24S304.77,269.84,304.77,269.84z"/>
	<polygon class="st18" points="288.56,288.18 352.85,298.14 349.3,308.13 288.56,298.14 	"/>
	<g>
		<path d="M351.71,44.18l-0.15,1.89l-8.24-0.66c-1.43-0.12-2.56-0.37-3.38-0.76c-0.82-0.39-1.46-1.03-1.92-1.92
			c-0.46-0.89-0.64-2.02-0.53-3.4c0.11-1.34,0.42-2.41,0.95-3.22s1.24-1.37,2.15-1.66c0.9-0.29,2.11-0.38,3.62-0.26l8.24,0.66
			l-0.15,1.89l-8.24-0.66c-1.24-0.1-2.16-0.06-2.77,0.13c-0.61,0.18-1.09,0.54-1.45,1.08c-0.36,0.54-0.58,1.21-0.64,2.02
			c-0.11,1.39,0.12,2.4,0.71,3.04c0.58,0.64,1.77,1.03,3.56,1.18L351.71,44.18z"/>
		<path d="M336.76,50.22l1.99,0.2l-0.2,1.99l-1.99-0.2L336.76,50.22z"/>
		<path d="M340.68,57.29l-0.06,1.79c-0.72,0-1.33,0.12-1.82,0.37c-0.49,0.25-0.92,0.68-1.28,1.29c-0.36,0.61-0.59,1.32-0.69,2.13
			c-0.09,0.72-0.06,1.36,0.09,1.94s0.39,1.02,0.73,1.33c0.34,0.31,0.73,0.5,1.17,0.55c0.45,0.05,0.85-0.03,1.21-0.25
			s0.7-0.61,1-1.18c0.19-0.36,0.53-1.18,1-2.45s0.88-2.15,1.22-2.63c0.44-0.63,0.94-1.09,1.51-1.36c0.57-0.27,1.18-0.36,1.83-0.28
			c0.72,0.09,1.36,0.37,1.94,0.86s0.97,1.14,1.2,1.96c0.23,0.82,0.28,1.71,0.17,2.67c-0.13,1.05-0.41,1.96-0.85,2.72
			s-1.01,1.32-1.72,1.67c-0.71,0.35-1.49,0.49-2.32,0.42l0.08-1.82c0.91,0.01,1.63-0.23,2.16-0.73s0.86-1.3,0.99-2.39
			c0.14-1.14,0.03-1.99-0.32-2.56c-0.35-0.57-0.82-0.89-1.41-0.96c-0.51-0.06-0.95,0.07-1.33,0.4c-0.37,0.32-0.83,1.22-1.36,2.71
			s-0.96,2.5-1.29,3.04c-0.48,0.78-1.04,1.33-1.67,1.65c-0.63,0.32-1.33,0.44-2.09,0.34c-0.76-0.09-1.44-0.4-2.06-0.91
			s-1.06-1.2-1.33-2.06c-0.27-0.86-0.35-1.79-0.22-2.81c0.16-1.29,0.48-2.34,0.96-3.16c0.48-0.82,1.13-1.44,1.94-1.84
			C338.84,57.36,339.72,57.2,340.68,57.29z"/>
		<path d="M334.04,72.72l1.98,0.29l-0.29,1.98l-1.98-0.29L334.04,72.72z"/>
		<path d="M331.77,87.03l14,3l-0.6,2.79L334.55,94c-0.99,0.11-1.73,0.18-2.21,0.23c0.47,0.27,1.17,0.68,2.08,1.22l9.02,5.44
			l-0.53,2.49l-14-3l0.38-1.79l11.72,2.51l-10.85-6.58l0.36-1.67l12.78-1.5l-11.92-2.55L331.77,87.03z"/>
		<path d="M327.82,104.12l13.13,7.93l-0.36,2.01l-15.12,3.25l0.38-2.12l4.56-0.88l1.05-5.89l-3.99-2.31L327.82,104.12z
			 M332.88,109.22l-0.85,4.78l4.17-0.77c1.27-0.24,2.3-0.4,3.1-0.48c-0.87-0.34-1.72-0.75-2.56-1.24L332.88,109.22z"/>
		<path d="M324.96,121.22l14.17,2.01l-0.27,1.88l-14.17-2.01L324.96,121.22z"/>
		<path d="M323.99,128.22l14.21,1.75l-0.23,1.88l-12.53-1.54l-0.86,7l-1.68-0.21L323.99,128.22z"/>
		<path d="M331.61,157.42l0.04-1.75c0.7-0.09,1.22-0.26,1.56-0.51c0.55-0.42,0.86-0.98,0.93-1.67c0.06-0.56-0.05-1.06-0.32-1.51
			c-0.35-0.59-0.89-1.08-1.63-1.48s-1.82-0.67-3.24-0.83c0.6,0.49,1.02,1.05,1.27,1.69c0.25,0.64,0.34,1.29,0.27,1.96
			c-0.12,1.17-0.65,2.11-1.59,2.85c-0.94,0.73-2.09,1.03-3.45,0.89c-0.89-0.09-1.7-0.37-2.43-0.83c-0.73-0.46-1.26-1.05-1.6-1.77
			c-0.34-0.71-0.47-1.5-0.38-2.35c0.15-1.46,0.8-2.59,1.97-3.4c1.16-0.81,2.98-1.09,5.44-0.84c2.75,0.28,4.7,0.99,5.85,2.14
			c1,1,1.42,2.25,1.27,3.75c-0.12,1.12-0.52,2.01-1.22,2.66C333.65,157.05,332.73,157.39,331.61,157.42z M326.2,149.66
			c-0.6-0.06-1.19,0.01-1.77,0.21s-1.03,0.51-1.37,0.95c-0.33,0.43-0.53,0.9-0.58,1.4c-0.07,0.74,0.16,1.4,0.7,2
			c0.54,0.59,1.32,0.94,2.35,1.04c0.98,0.1,1.79-0.08,2.41-0.55c0.62-0.47,0.97-1.1,1.05-1.9c0.08-0.79-0.13-1.49-0.65-2.1
			C327.83,150.1,327.12,149.75,326.2,149.66z"/>
		<path d="M321.3,169.6l-1.68-0.16l0.88-9.42c0.42,0.03,0.82,0.13,1.2,0.32c0.62,0.3,1.21,0.74,1.79,1.33
			c0.57,0.59,1.22,1.42,1.94,2.49c1.12,1.67,2.04,2.81,2.73,3.42c0.69,0.61,1.37,0.95,2.03,1.01c0.69,0.06,1.3-0.13,1.83-0.58
			c0.52-0.45,0.82-1.08,0.89-1.87c0.08-0.84-0.11-1.54-0.57-2.09c-0.46-0.55-1.13-0.88-2.03-0.96l0.35-1.78
			c1.33,0.25,2.31,0.81,2.94,1.68c0.63,0.87,0.88,1.98,0.75,3.34c-0.13,1.37-0.61,2.42-1.44,3.14c-0.83,0.73-1.81,1.04-2.93,0.93
			c-0.57-0.05-1.12-0.22-1.65-0.51s-1.07-0.73-1.63-1.32c-0.56-0.6-1.31-1.58-2.26-2.93c-0.78-1.13-1.32-1.86-1.61-2.19
			c-0.29-0.33-0.58-0.6-0.88-0.83L321.3,169.6z"/>
		<path d="M323.04,173.59l0.08,1.77c-1.01,0.11-1.76,0.39-2.24,0.84c-0.48,0.44-0.75,1.01-0.81,1.71c-0.07,0.82,0.15,1.54,0.67,2.16
			c0.52,0.62,1.2,0.96,2.05,1.04c0.8,0.07,1.49-0.13,2.06-0.61s0.89-1.12,0.96-1.93c0.03-0.33,0-0.75-0.09-1.25l1.52,0.33
			c-0.02,0.12-0.04,0.21-0.04,0.28c-0.06,0.75,0.07,1.43,0.41,2.06c0.34,0.63,0.91,0.98,1.72,1.05c0.64,0.06,1.19-0.11,1.65-0.51
			c0.46-0.4,0.72-0.94,0.78-1.63c0.06-0.68-0.1-1.27-0.49-1.76c-0.39-0.49-1-0.84-1.85-1.04l0.46-1.72c1.15,0.32,2.02,0.88,2.6,1.7
			s0.82,1.79,0.72,2.92c-0.07,0.78-0.3,1.48-0.69,2.11c-0.39,0.62-0.89,1.09-1.5,1.38c-0.61,0.3-1.24,0.42-1.88,0.36
			c-0.62-0.05-1.16-0.27-1.64-0.64c-0.48-0.38-0.84-0.9-1.08-1.58c-0.27,0.83-0.73,1.45-1.38,1.86c-0.65,0.41-1.44,0.58-2.36,0.5
			c-1.25-0.11-2.26-0.66-3.05-1.64c-0.79-0.98-1.12-2.17-1-3.56c0.11-1.25,0.57-2.26,1.39-3.02S321.84,173.6,323.04,173.59z"/>
		<path d="M317.66,191.91l3.42,0.29l0.52-6.19l1.61,0.14l8.7,7.29l-0.12,1.43l-9.24-0.78l-0.16,1.93l-1.61-0.14l0.16-1.93
			l-3.41-0.29L317.66,191.91z M322.68,192.33l6.43,0.54l-6.05-5.01L322.68,192.33z"/>
		<path d="M320.78,199.63l0,1.85c-0.91,0.06-1.61,0.32-2.1,0.78c-0.49,0.46-0.77,1.04-0.83,1.74c-0.07,0.84,0.19,1.58,0.78,2.22
			c0.59,0.64,1.41,1,2.46,1.09c1,0.08,1.81-0.13,2.43-0.65c0.62-0.51,0.97-1.22,1.05-2.13c0.05-0.56-0.04-1.08-0.26-1.56
			c-0.22-0.48-0.52-0.86-0.91-1.15l0.35-1.63l7.21,1.99l-0.59,7.09l-1.67-0.14l0.47-5.69l-3.77-1.09c0.53,0.91,0.75,1.83,0.67,2.77
			c-0.1,1.25-0.62,2.26-1.56,3.05c-0.93,0.78-2.08,1.12-3.44,1.01c-1.29-0.11-2.38-0.58-3.25-1.41c-1.08-1.01-1.55-2.31-1.42-3.89
			c0.11-1.3,0.56-2.33,1.35-3.09S319.57,199.64,320.78,199.63z"/>
		<path d="M325.97,222.36l0.01-1.75c0.7-0.1,1.22-0.28,1.55-0.54c0.54-0.43,0.84-1,0.9-1.69c0.04-0.56-0.07-1.06-0.35-1.51
			c-0.36-0.58-0.91-1.07-1.65-1.45c-0.74-0.38-1.83-0.64-3.26-0.77c0.61,0.48,1.04,1.03,1.3,1.67c0.26,0.64,0.36,1.29,0.31,1.96
			c-0.1,1.17-0.61,2.13-1.54,2.88s-2.07,1.07-3.44,0.95c-0.9-0.07-1.71-0.34-2.45-0.79c-0.74-0.45-1.28-1.03-1.63-1.74
			s-0.49-1.49-0.42-2.35c0.12-1.46,0.76-2.61,1.91-3.44c1.15-0.83,2.96-1.14,5.42-0.94c2.76,0.23,4.72,0.91,5.89,2.03
			c1.02,0.98,1.46,2.22,1.33,3.73c-0.09,1.12-0.48,2.02-1.17,2.68S327.09,222.31,325.97,222.36z M320.42,214.69
			c-0.6-0.05-1.19,0.03-1.77,0.24c-0.57,0.21-1.02,0.53-1.35,0.97s-0.51,0.91-0.55,1.41c-0.06,0.74,0.18,1.4,0.74,1.98
			s1.34,0.92,2.37,1c0.99,0.08,1.79-0.12,2.4-0.59c0.61-0.48,0.95-1.12,1.02-1.91c0.07-0.79-0.16-1.49-0.68-2.09
			S321.34,214.77,320.42,214.69z"/>
		<path d="M327.25,226.6l1.68,0.15l-0.8,9.23l-1.36-0.12c-0.89-0.99-2.09-2-3.62-3.03c-1.53-1.03-3.11-1.86-4.76-2.5
			c-1.16-0.45-2.45-0.79-3.86-1.01l0.16-1.8c1.12,0.12,2.46,0.46,4.01,1.01c1.55,0.56,3.03,1.3,4.44,2.21
			c1.41,0.92,2.58,1.86,3.51,2.84L327.25,226.6z"/>
		<path d="M321.2,241.84c0.33-0.7,0.76-1.2,1.29-1.51s1.13-0.42,1.82-0.36c1.04,0.1,1.87,0.55,2.51,1.36
			c0.64,0.81,0.9,1.84,0.78,3.07c-0.12,1.25-0.57,2.21-1.37,2.9c-0.79,0.69-1.71,0.99-2.75,0.89c-0.66-0.06-1.22-0.29-1.68-0.68
			s-0.79-0.96-0.98-1.69c-0.37,0.85-0.89,1.47-1.57,1.87c-0.68,0.4-1.46,0.55-2.34,0.47c-1.22-0.11-2.2-0.64-2.95-1.58
			s-1.06-2.11-0.92-3.52c0.13-1.41,0.65-2.5,1.57-3.29c0.91-0.78,1.99-1.12,3.24-1c0.93,0.09,1.68,0.4,2.26,0.92
			C320.7,240.24,321.06,240.95,321.2,241.84z M317.67,240.58c-0.5-0.05-0.99,0.03-1.48,0.22c-0.49,0.19-0.88,0.51-1.18,0.95
			c-0.3,0.44-0.47,0.93-0.53,1.47c-0.08,0.84,0.12,1.55,0.61,2.15c0.49,0.59,1.14,0.93,1.97,1.01c0.84,0.08,1.57-0.13,2.17-0.64
			c0.6-0.51,0.95-1.19,1.02-2.03c0.08-0.82-0.13-1.53-0.62-2.12C319.14,241,318.49,240.66,317.67,240.58z M324.2,241.77
			c-0.67-0.06-1.24,0.1-1.71,0.5c-0.47,0.39-0.74,0.94-0.8,1.63c-0.06,0.67,0.1,1.25,0.48,1.72s0.88,0.74,1.5,0.79
			c0.64,0.06,1.2-0.11,1.68-0.51c0.48-0.4,0.75-0.93,0.81-1.6c0.06-0.67-0.1-1.24-0.49-1.72
			C325.29,242.09,324.8,241.82,324.2,241.77z"/>
	</g>
	<g>
		<path d="M374.05,397.27l0.78,3.42l-14.92,3.41c-2.6,0.59-4.72,0.77-6.38,0.53c-1.66-0.24-3.14-1.01-4.45-2.33
			c-1.31-1.31-2.24-3.21-2.81-5.7c-0.55-2.42-0.59-4.49-0.11-6.22c0.48-1.73,1.44-3.1,2.87-4.12c1.43-1.02,3.51-1.84,6.25-2.47
			l14.92-3.41l0.78,3.42l-14.9,3.41c-2.24,0.51-3.85,1.1-4.81,1.76c-0.97,0.66-1.62,1.56-1.96,2.71c-0.34,1.15-0.35,2.45-0.01,3.92
			c0.57,2.51,1.55,4.17,2.94,4.98c1.38,0.81,3.7,0.84,6.94,0.1L374.05,397.27z"/>
		<path d="M350.82,416.11l3.65-0.65l0.65,3.65l-3.65,0.65L350.82,416.11z"/>
		<path d="M362.04,427.06l0.22,3.31c-1.33,0.13-2.42,0.47-3.28,1.02c-0.86,0.55-1.57,1.43-2.12,2.62c-0.55,1.19-0.84,2.54-0.87,4.05
			c-0.03,1.34,0.15,2.52,0.52,3.55c0.38,1.03,0.9,1.81,1.59,2.32c0.68,0.51,1.43,0.78,2.25,0.8c0.83,0.02,1.56-0.21,2.19-0.68
			c0.63-0.47,1.17-1.25,1.61-2.35c0.29-0.71,0.76-2.27,1.39-4.69s1.22-4.11,1.76-5.08c0.69-1.25,1.53-2.18,2.52-2.77
			c1-0.6,2.1-0.89,3.32-0.86c1.34,0.03,2.58,0.43,3.72,1.22s2,1.91,2.58,3.38c0.57,1.47,0.84,3.09,0.8,4.88
			c-0.04,1.96-0.39,3.69-1.06,5.17c-0.66,1.49-1.62,2.62-2.86,3.4c-1.25,0.78-2.65,1.18-4.2,1.21l-0.18-3.36
			c1.68-0.15,2.96-0.73,3.83-1.75s1.34-2.55,1.38-4.59c0.04-2.12-0.31-3.67-1.07-4.66s-1.68-1.49-2.78-1.51
			c-0.95-0.02-1.74,0.31-2.37,0.98c-0.63,0.66-1.29,2.41-2,5.24s-1.31,4.78-1.81,5.83c-0.74,1.53-1.67,2.65-2.77,3.36
			c-1.11,0.71-2.37,1.05-3.79,1.02c-1.41-0.03-2.73-0.46-3.96-1.29s-2.17-2.01-2.83-3.54c-0.66-1.53-0.97-3.23-0.93-5.12
			c0.05-2.4,0.44-4.4,1.18-6s1.81-2.85,3.23-3.74S360.27,427.07,362.04,427.06z"/>
		<path d="M350.02,455l3.58,0.94l-0.94,3.58l-3.58-0.94L350.02,455z"/>
		<path d="M345.43,481.54l26.73,9.5l0.1,3.78l-26.21,11.5l-0.1-3.99l7.94-3.29l-0.28-11.07l-8.09-2.71L345.43,481.54z M356.5,488.91
			l0.23,8.98l7.26-2.95c2.21-0.9,4.02-1.57,5.44-2.02c-1.71-0.29-3.4-0.73-5.09-1.3L356.5,488.91z"/>
		<path d="M346.32,513.33l26.48-0.67l0.09,3.5l-26.48,0.67L346.32,513.33z"/>
		<path d="M346.67,526.51l26.49,0.08l-0.04,11.74c-0.01,2.36-0.25,4.15-0.73,5.38s-1.32,2.21-2.53,2.94c-1.21,0.73-2.54,1.09-4,1.09
			c-1.88-0.01-3.46-0.62-4.75-1.84c-1.29-1.22-2.1-3.1-2.44-5.64c-0.45,0.93-0.89,1.63-1.33,2.11c-0.94,1.02-2.12,1.99-3.53,2.9
			l-7.22,4.59l0.01-4.41l5.52-3.49c1.59-1.02,2.81-1.86,3.66-2.52c0.85-0.66,1.44-1.25,1.78-1.77c0.34-0.52,0.58-1.06,0.71-1.6
			c0.09-0.4,0.13-1.05,0.13-1.95l0.01-4.07l-11.76-0.03L346.67,526.51z M361.46,530.06l-0.02,7.53c-0.01,1.6,0.16,2.85,0.49,3.76
			c0.33,0.9,0.86,1.59,1.58,2.06c0.73,0.47,1.52,0.71,2.38,0.71c1.25,0,2.28-0.45,3.09-1.36c0.81-0.91,1.22-2.34,1.22-4.31
			l0.02-8.38L361.46,530.06z"/>
		<path d="M345.72,569.91l26.33,2.88l-0.57,5.24l-19.32,4.19c-1.8,0.38-3.14,0.66-4.04,0.83c0.93,0.4,2.28,1.02,4.07,1.86
			l17.63,8.31l-0.51,4.69l-26.33-2.88l0.37-3.36l22.04,2.41l-21.2-10.06l0.34-3.14l23.25-5.16l-22.41-2.45L345.72,569.91z"/>
		<path d="M342.14,600.61l23.48,15.92l-0.86,3.68l-28.26,4.54l0.91-3.89l8.51-1.19l2.51-10.79l-7.15-4.65L342.14,600.61z
			 M351,610.52l-2.04,8.75l7.77-1.03c2.36-0.32,4.29-0.51,5.78-0.58c-1.58-0.71-3.11-1.56-4.6-2.54L351,610.52z"/>
		<path d="M334.18,630.63l24.9,9.02l-1.19,3.29l-24.9-9.02L334.18,630.63z"/>
		<path d="M329.88,642.08l23.31,12.57l-1.66,3.09l-20.56-11.09l-6.19,11.48l-2.75-1.48L329.88,642.08z"/>
	</g>
	<g>
		<path d="M416.83,455.15l22.9-0.46l0.16,7.89c0.04,1.78-0.04,3.14-0.25,4.08c-0.28,1.32-0.8,2.45-1.57,3.39
			c-1,1.23-2.28,2.16-3.86,2.79c-1.57,0.63-3.38,0.97-5.42,1.01c-1.74,0.04-3.28-0.14-4.63-0.51c-1.35-0.38-2.47-0.88-3.37-1.49
			c-0.89-0.62-1.6-1.3-2.12-2.04c-0.52-0.75-0.92-1.65-1.2-2.71c-0.28-1.06-0.44-2.29-0.46-3.67L416.83,455.15z M419.59,458.13
			l0.1,4.89c0.03,1.51,0.19,2.69,0.49,3.54c0.3,0.85,0.71,1.53,1.23,2.03c0.73,0.7,1.71,1.24,2.93,1.62
			c1.22,0.38,2.7,0.55,4.42,0.51c2.39-0.05,4.23-0.48,5.5-1.29c1.27-0.81,2.11-1.79,2.53-2.92c0.29-0.82,0.42-2.13,0.39-3.93
			l-0.1-4.81L419.59,458.13z"/>
		<path d="M428.08,481.04c3.68-0.95,6.82-0.7,9.41,0.74c2.59,1.44,4.29,3.73,5.09,6.85c0.53,2.05,0.51,4.02-0.04,5.91
			c-0.56,1.9-1.6,3.5-3.13,4.81c-1.53,1.31-3.4,2.25-5.62,2.82c-2.25,0.58-4.38,0.64-6.39,0.19c-2.01-0.45-3.68-1.39-5.02-2.82
			c-1.34-1.43-2.26-3.11-2.75-5.03c-0.54-2.09-0.51-4.08,0.07-5.99s1.64-3.5,3.17-4.8C424.39,482.44,426.13,481.54,428.08,481.04z
			 M428.81,484.08c-2.67,0.69-4.59,1.95-5.76,3.78s-1.47,3.83-0.92,6c0.57,2.21,1.81,3.83,3.73,4.86c1.92,1.03,4.31,1.17,7.16,0.44
			c1.8-0.46,3.3-1.17,4.49-2.13c1.19-0.96,2-2.12,2.44-3.48s0.47-2.78,0.1-4.24c-0.54-2.08-1.71-3.68-3.52-4.81
			C434.72,483.36,432.15,483.22,428.81,484.08z"/>
		<path d="M425.15,511.92l22-6.38l1.27,4.38l-14.06,9.72c-1.31,0.9-2.29,1.57-2.95,1.99c0.87,0.02,2.16,0.07,3.86,0.15l16.83,0.83
			l1.13,3.92l-21.99,6.38l-0.81-2.81l18.41-5.34l-20.26-1.05l-0.76-2.62l16.88-11.79l-18.72,5.43L425.15,511.92z"/>
		<path d="M433.24,540.49l22.28-5.3l3.83,16.11l-2.63,0.63l-3.13-13.16l-6.82,1.62l2.93,12.32l-2.61,0.62l-2.93-12.32l-7.58,1.81
			l3.26,13.68l-2.63,0.62L433.24,540.49z"/>
		<path d="M445.69,561.7l0.72,2.78c-1.11,0.32-1.98,0.79-2.62,1.4c-0.64,0.61-1.1,1.46-1.38,2.57c-0.28,1.1-0.31,2.29-0.09,3.58
			c0.19,1.14,0.53,2.12,1.01,2.94c0.48,0.82,1.06,1.39,1.72,1.72c0.66,0.33,1.34,0.43,2.04,0.32c0.71-0.12,1.29-0.43,1.75-0.93
			c0.46-0.5,0.79-1.25,0.99-2.26c0.14-0.65,0.28-2.05,0.43-4.21c0.15-2.16,0.38-3.69,0.68-4.6c0.38-1.17,0.95-2.09,1.7-2.76
			c0.75-0.67,1.64-1.09,2.68-1.26c1.14-0.19,2.26-0.04,3.36,0.44c1.1,0.48,2.01,1.3,2.73,2.46c0.72,1.16,1.21,2.5,1.46,4.02
			c0.28,1.67,0.26,3.2-0.07,4.56c-0.33,1.37-0.96,2.49-1.89,3.35c-0.93,0.86-2.06,1.43-3.37,1.7l-0.69-2.83
			c1.4-0.39,2.39-1.09,2.97-2.1c0.58-1.01,0.73-2.38,0.44-4.12c-0.3-1.81-0.85-3.07-1.65-3.78c-0.8-0.72-1.67-1-2.6-0.84
			c-0.81,0.14-1.43,0.54-1.86,1.21c-0.43,0.66-0.71,2.25-0.86,4.78c-0.14,2.52-0.35,4.27-0.61,5.24c-0.39,1.42-0.99,2.51-1.82,3.3
			c-0.83,0.78-1.84,1.27-3.06,1.48c-1.2,0.2-2.39,0.05-3.57-0.46s-2.17-1.36-2.98-2.55c-0.81-1.19-1.34-2.59-1.61-4.21
			c-0.34-2.04-0.33-3.81,0.04-5.29c0.36-1.48,1.08-2.71,2.14-3.7C442.9,562.63,444.19,561.99,445.69,561.7z"/>
		<path d="M442.63,593.41l20.15-1.43l-0.53-7.53l2.69-0.19l1.28,18.11l-2.7,0.19L463,595l-20.15,1.43L442.63,593.41z"/>
		<path d="M443.19,610.24l22.89,0.61l-0.08,3.03l-22.89-0.61L443.19,610.24z"/>
		<path d="M448,638.5l-1.29,2.85c-2.34-1.06-4.01-2.52-5-4.38c-1-1.86-1.29-3.96-0.87-6.3c0.43-2.43,1.28-4.32,2.54-5.66
			c1.26-1.35,2.9-2.25,4.92-2.71c2.02-0.46,4.1-0.5,6.26-0.11c2.35,0.42,4.32,1.23,5.9,2.44c1.59,1.21,2.69,2.72,3.3,4.54
			s0.74,3.72,0.38,5.71c-0.4,2.26-1.32,4.05-2.74,5.38c-1.42,1.33-3.23,2.11-5.42,2.35l-0.17-3.06c1.73-0.23,3.06-0.78,3.99-1.64
			c0.92-0.86,1.52-2.04,1.79-3.55c0.31-1.73,0.15-3.25-0.47-4.57c-0.62-1.31-1.59-2.33-2.91-3.05c-1.31-0.72-2.72-1.21-4.2-1.48
			c-1.92-0.34-3.64-0.36-5.17-0.06c-1.53,0.3-2.75,0.98-3.67,2.03s-1.5,2.27-1.75,3.64c-0.3,1.67-0.07,3.17,0.69,4.5
			C444.89,636.71,446.18,637.75,448,638.5z"/>
	</g>
	<path class="st20" d="M253.49,722.99c0,0,75.88-63.34,80.47-145.15c4.59-81.81-0.68-97.77,4.45-127.7
		c5.13-29.93-4.7-77.76-17.74-123.68"/>
	<path class="st20" d="M411.21,689.5c0,0,2.17-17.89,10.15-32.85c7.98-14.96,20.68-50.88,14.33-70.83
		c-6.35-19.95-28-103.35-22.16-139.97c5.84-36.61-57.23-123.85-38.33-163.79"/>
	<path class="st20" d="M298.79,236.72c0,0-44.58,97.7-41.81,111.66c2.77,13.97,5.76,39.57,4.76,45.73s-80.81,53.04-86.79,73.99
		c-5.99,20.95,49.88,146.65-36.91,170.59c-86.79,23.94,147.24,38.9-33.62,72.32"/>
	<path class="st20" d="M216.8,716.18c0,0-0.95-34.1-123.66-64.27C-29.57,621.73,5.33,547.2,7.73,543.13"/>
	<path class="st20" d="M229.48,269.01c0,0-19.53,72.4-32.54,76.39c-13.01,3.99-17.38,74.36-92.53,121.71s-78.9,50.14-87.79,63.09"/>
	<path class="st20" d="M271.43,184.77c0,0-13.69-20.95-7.7-30.42s-3.52-67.35-17.72-83.8"/>
	<path class="st20" d="M271.43,120.42c0,0,27.41,10.16,38.62,75.33"/>
	<path class="st20" d="M159.87,75.12c0,0,29.9,28.67,37.07,50.69s11.81,26.03,29.82,34.51"/>
	<g>
		<path class="st21" d="M204.04,95.04c-4.55,0-8.11-5.71-8.11-12.99c0-7.29,3.56-13,8.11-13c4.54,0,8.1,5.71,8.1,13
			C212.14,89.33,208.58,95.04,204.04,95.04z"/>
		<path class="st22" d="M204.04,70.05c3.92,0,7.1,5.37,7.1,12c0,6.62-3.18,11.99-7.1,11.99c-3.93,0-7.11-5.37-7.11-11.99
			C196.93,75.42,200.11,70.05,204.04,70.05 M204.04,68.05c-5.11,0-9.11,6.15-9.11,14c0,7.84,4,13.99,9.11,13.99
			c5.1,0,9.1-6.15,9.1-13.99C213.14,74.2,209.15,68.05,204.04,68.05L204.04,68.05z"/>
	</g>
	<path class="st23" d="M251.6,65.2c-3.88,0.62-7.86-4.19-8.9-10.73c-1.04-6.54,1.25-12.35,5.13-12.96c3.88-0.62,7.86,4.19,8.9,10.73
		C257.77,58.78,255.47,64.59,251.6,65.2z"/>
</g>
</svg>
