<?xml version="1.0" encoding="utf-8"?>
<!-- Generator: Adobe Illustrator 25.4.1, SVG Export Plug-In . SVG Version: 6.00 Build 0)  -->
<svg version="1.1" id="Layer_1" xmlns="http://www.w3.org/2000/svg" xmlns:xlink="http://www.w3.org/1999/xlink" x="0px" y="0px"
	 viewBox="0 0 564.06 740.47" style="enable-background:new 0 0 564.06 740.47;" xml:space="preserve">
<style type="text/css">
	.st0{fill:#282828;}
	.st1{fill:none;}
	.st2{fill:#A35625;}
	.st3{fill:#515251;}
	.st4{fill:#ED7725;}
	.st5{fill:#A09F9F;}
	.st6{fill:#D8D8D8;}
	.st7{fill:#7F4D1F;}
	.st8{fill:#4A494A;}
	.st9{fill:#FFFFFF;}
	.st10{fill:#E8E8E8;}
	.st11{fill:#B7B7B7;}
	.st12{fill:#828282;}
	.st13{fill:#606161;}
</style>
<g>
	<g>
		<path class="st0" d="M432.51,236.05c0,0,33.92,1.9,48.33,11.53c14.41,9.63,30.37,37.47,34.36,41.9l18.4,2.75l-24.61-33.12
			l-73.6-38.86L432.51,236.05z"/>
	</g>
	<g>
		<path class="st1" d="M373.3,32.51c0,0-12.8,5.09-12.69,16.94c4.48,0.47,9.17,0.74,13.98,0.73
			C374.96,42.15,374.64,35.76,373.3,32.51z"/>
	</g>
	<g>
		<path class="st1" d="M353.33,52.92c-2.23,1.81-4.09,5.19-4.84,9.28c-1.22,6.59,0.92,12.51,4.77,13.23s7.96-4.06,9.18-10.65
			c0.8-4.36,0.14-8.41-1.51-10.87C361,60.85,355.76,55.68,353.33,52.92z"/>
	</g>
	<g>
		<path class="st1" d="M289.9,44.39c-3.88,0.62-6.17,6.42-5.13,12.96c1.04,6.54,5.03,11.35,8.9,10.73s6.17-6.42,5.13-12.96
			C297.76,48.57,293.77,43.77,289.9,44.39z"/>
	</g>
	<g>
		<path class="st2" d="M422.57,22.54c-3.08,10.52-12.64,18.86-23.94,24.19c1.62,23.79,2.21,53.83-3.31,72.58
			c-1.39,4.71-2.73,12.01-4.04,21.17l17.66-5.21l72.15-35.91C537.4,61.72,427.25,6.57,422.57,22.54z"/>
		<path class="st0" d="M390.69,141.17l0.11-0.77c1.39-9.75,2.71-16.69,4.05-21.24c4.43-15.07,5.54-39.44,3.29-72.41l-0.02-0.34
			l0.31-0.15c12.47-5.88,20.88-14.36,23.67-23.88l0.48,0.14l-0.48-0.14c0.42-1.44,1.85-3.16,6.25-3.19c0.04,0,0.08,0,0.11,0
			c16.68,0,60.26,23.21,67.94,48.25c3.76,12.26-1.29,23.13-15.01,32.31l-72.21,35.95L390.69,141.17z M399.16,47.03
			c2.23,32.92,1.1,57.28-3.35,72.42c-1.27,4.31-2.58,11.15-3.91,20.33l16.92-4.98l72.07-35.88c13.26-8.87,18.17-19.36,14.56-31.15
			c-7.57-24.67-50.53-47.55-66.98-47.55c-0.04,0-0.07,0-0.11,0c-3.04,0.02-4.83,0.85-5.3,2.47
			C420.2,32.39,411.72,41.03,399.16,47.03z"/>
	</g>
	<g>
		<path class="st2" d="M374.59,50.19c-4.8,0.01-9.49-0.26-13.98-0.73c0.01,0.65,0.04,1.32,0.13,2.02c0.12,0.94,0.17,1.74,0.18,2.43
			c1.65,2.46,2.32,6.51,1.51,10.87c-1.22,6.59-5.33,11.36-9.18,10.65s-5.99-6.63-4.77-13.23c0.75-4.08,2.62-7.46,4.84-9.28
			c-0.73-0.83-1.2-1.44-1.2-1.44s0.08-1.19,0.23-3.12c-17.6-2.83-30.3-7.93-30.3-7.93c-1.48-12.63-3.68-22.69-8.55-21.88
			c-11.98,2-0.98,22.95-44.67,27.93c-43.69,4.99-51.09-20.95-61.06-13.97c-9.98,6.98-32.92-2-52.87,10.97
			c-19.95,12.97-8.41,29.93-8.41,29.93c18.52,17.96,94.21,37.91,94.21,37.91l47.39,34.92l46.38,10.97l24-7.07
			c1.61-14.34,3.09-24.79,4.31-28.84C367.6,105.3,373.59,71.81,374.59,50.19z M293.67,68.08c-3.88,0.62-7.86-4.19-8.9-10.73
			c-1.04-6.54,1.25-12.35,5.13-12.96c3.88-0.62,7.86,4.19,8.9,10.73C299.84,61.66,297.55,67.46,293.67,68.08z"/>
		<path class="st0" d="M334.49,157.73l-0.13-0.03l-46.48-11l-0.08-0.06l-47.31-34.86c-4.22-1.12-76.09-20.32-94.34-38.01l-0.07-0.08
			c-0.19-0.28-4.72-7.06-3.03-15.45c1.17-5.84,5.07-10.95,11.59-15.18c11.62-7.56,24.42-7.74,34.7-7.89
			c7.54-0.11,14.06-0.2,18.16-3.07c4.15-2.91,7.79-0.55,13.3,3.02c8.54,5.53,21.46,13.89,47.99,10.86
			c28.54-3.26,33.41-13.17,36.97-20.4c1.87-3.8,3.35-6.81,7.68-7.53c1.02-0.17,1.98,0.07,2.85,0.72c2.87,2.16,4.74,8.53,6.25,21.3
			c1.95,0.75,13.98,5.23,29.91,7.79l0.46,0.07l-0.04,0.46c-0.11,1.47-0.19,2.51-0.22,2.92c0.18,0.23,0.56,0.7,1.07,1.27l0.34,0.39
			l-0.4,0.33c-2.22,1.81-3.96,5.17-4.67,8.98c-0.57,3.1-0.41,6.14,0.46,8.56c0.84,2.32,2.23,3.77,3.91,4.09
			c1.68,0.31,3.5-0.55,5.11-2.42c1.68-1.95,2.92-4.73,3.49-7.83c0.75-4.04,0.2-8.07-1.44-10.5l-0.08-0.12l0-0.15
			c-0.01-0.71-0.07-1.49-0.18-2.37c-0.08-0.65-0.13-1.33-0.13-2.08l0-0.56l0.56,0.06c4.73,0.49,9.4,0.71,13.92,0.73l0.52,0
			l-0.02,0.52c-0.99,21.58-7.06,55.4-11.83,71.23c-1.13,3.76-2.58,13.43-4.29,28.75l-0.04,0.33L334.49,157.73z M288.3,145.78
			l46.16,10.92l23.55-6.94c1.71-15.19,3.15-24.81,4.29-28.6c4.71-15.65,10.7-48.94,11.76-70.47c-4.2-0.01-8.54-0.24-12.94-0.68
			c0.02,0.49,0.06,0.95,0.11,1.4c0.11,0.86,0.17,1.63,0.18,2.34c1.74,2.69,2.3,6.83,1.51,11.11c-0.6,3.27-1.92,6.22-3.71,8.3
			c-1.85,2.15-4,3.13-6.05,2.75c-2.04-0.38-3.7-2.06-4.67-4.73c-0.93-2.58-1.11-5.8-0.5-9.08c0.7-3.82,2.42-7.23,4.63-9.24
			c-0.55-0.64-0.89-1.08-0.89-1.08l-0.12-0.15l0.01-0.19c0,0,0.07-1,0.2-2.66c-17.22-2.82-29.82-7.83-29.95-7.88l-0.28-0.11
			l-0.04-0.29c-0.91-7.76-2.5-18.36-5.89-20.91c-0.65-0.49-1.33-0.66-2.08-0.54c-3.83,0.64-5.14,3.3-6.95,6.98
			c-3.45,7.02-8.67,17.63-37.75,20.95c-26.89,3.07-39.98-5.41-48.65-11.02c-5.35-3.47-8.59-5.56-12.18-3.04
			c-4.35,3.04-11.01,3.14-18.72,3.25c-10.15,0.15-22.79,0.33-34.17,7.73c-6.28,4.08-10.03,8.97-11.15,14.54
			c-1.54,7.65,2.49,14.08,2.85,14.65c18.29,17.65,93.2,37.55,93.95,37.75l0.17,0.08L288.3,145.78z M293.01,68.63
			c-3.9,0-7.72-4.8-8.74-11.2c-0.52-3.25-0.25-6.44,0.75-8.97c1.04-2.62,2.74-4.24,4.79-4.57c4.16-0.67,8.39,4.34,9.48,11.14
			c1.08,6.8-1.4,12.88-5.54,13.54C293.5,68.61,293.26,68.63,293.01,68.63z M290.58,44.83c-0.2,0-0.4,0.02-0.61,0.05
			c-1.69,0.27-3.12,1.67-4.02,3.95c-0.94,2.37-1.18,5.36-0.69,8.44c1,6.26,4.73,10.89,8.33,10.31c3.6-0.57,5.71-6.13,4.71-12.39
			C297.37,49.28,293.98,44.83,290.58,44.83z"/>
	</g>
	<g>
		<path class="st3" d="M353.33,52.92c1.37-1.12,2.87-1.64,4.34-1.37c1.31,0.24,2.41,1.09,3.26,2.35c-0.01-0.69-0.06-1.48-0.18-2.43
			c-0.09-0.7-0.12-1.37-0.13-2.02c-2.85-0.3-5.6-0.67-8.25-1.1c-0.15,1.93-0.23,3.12-0.23,3.12S352.6,52.09,353.33,52.92z"/>
	</g>
	<g>
		<path class="st1" d="M246.12,72.92c-3.92,0-7.1,5.37-7.1,12s3.18,12,7.1,12c3.92,0,7.11-5.37,7.11-12S250.04,72.92,246.12,72.92z"
			/>
	</g>
	<g>
		<path class="st1" d="M345.01,110.56c-1.5,8.12,0.53,15.51,4.6,18.17l-0.99-27.65C346.97,103.66,345.68,106.91,345.01,110.56z"/>
	</g>
	<g>
		<path class="st1" d="M361.22,124.27c1.8-2.65,3.23-6.09,3.95-9.98c1.51-8.17-0.55-15.61-4.68-18.22
			c0.03,5.86,0.1,10.75,0.25,13.35C360.87,111.69,361.04,117.13,361.22,124.27z"/>
	</g>
	<g>
		<path class="st4" d="M523.2,546.29c-11.79-53.87-38.08-127.7-42.09-153.64c-4-25.93-5.97-35.91-31.91-65.84
			c-25.94-29.93-69.83-97.77-69.83-97.77v-31.92c33.39-68.74,99.63-96.89,101.69-97.75c-27.91,9.95-45.84,1.97-58.49-15.98
			c-12.66-17.96-25.24-41.9-49.19-15.3c-4.26,4.75-8.6,9.74-12.89,14.71c-4.07,4.72-8.11,9.42-12.03,13.87
			c-15.11,17.16-28.43,30.53-34.95,26.63c-9.99-5.99,0.01-49.88-25.42-49.88c-25.44,0-42.4-11.98-68.6,0c-26.19,11.97-73,0-73,0
			c-1.43,11.97,19.39,27.93,35.35,25.93c15.96-1.99,61.85,59.86,87,63.85c25.15,3.99,26.73,3.99,30.72,11.97
			c3.99,7.98,32.31,23.95,32.31,23.95v27.93c-27.55,5.99-84.19,75.82-130.08,97.77c-45.89,21.94-81.8,77.81-107.74,149.64
			c-25.94,71.83-61.86,51.88-48.64,135.68c13.21,83.8,52.63,93.77,101.08,103.75c48.45,9.98,91.22-3.99,149.08,11.97
			c57.86,15.96,115.72-27.93,185.54-39.9C550.93,673.98,535,600.16,523.2,546.29z M246.12,96.91c-3.93,0-7.11-5.37-7.11-11.99
			c0-6.63,3.18-12,7.11-12c3.92,0,7.1,5.37,7.1,12C253.22,91.54,250.04,96.91,246.12,96.91z M365.17,114.29
			c-0.72,3.89-2.14,7.33-3.94,9.98c0.67,25.95,1.55,74.36,1.55,74.36h-10.65l-2.51-69.9c-4.08-2.65-6.11-10.05-4.61-18.17
			c0.68-3.65,1.97-6.9,3.61-9.48c2.65-4.15,6.22-6.54,9.66-5.91c0.79,0.15,1.53,0.47,2.21,0.9
			C364.62,98.68,366.68,106.12,365.17,114.29z"/>
		<path d="M321.7,729.8c-8.79,0-17.54-1.04-26.27-3.45c-32.13-8.86-59.52-8.48-86-8.11c-21.34,0.3-41.5,0.58-63.04-3.86
			c-25.81-5.31-46.9-10.48-63.97-24.29c-19.48-15.77-31.4-41.15-37.5-79.87c-8.12-51.44,2.05-63.77,17.44-82.43
			c9.43-11.43,21.17-25.66,31.22-53.5c28.07-77.72,65.41-129.56,107.99-149.92c23.03-11.02,49.19-34.49,72.26-55.21
			c23.45-21.05,43.73-39.25,57.53-42.51v-27.24c-3.01-1.71-28.4-16.31-32.26-24.02c-3.74-7.49-5.11-7.7-27.94-11.32l-2.41-0.38
			c-13.19-2.09-31.42-19.35-49.05-36.03c-15.61-14.78-30.37-28.74-37.81-27.81c-9.04,1.14-20.91-3.61-28.88-11.54
			c-5.08-5.05-7.57-10.36-7.03-14.95l0.07-0.57l0.55,0.14c0.47,0.12,46.94,11.79,72.67,0.03c17.29-7.91,30.67-5.45,44.84-2.84
			c7.48,1.38,15.22,2.8,23.97,2.8c16.3,0,18.45,17.64,20.18,31.81c1,8.23,1.95,16.01,5.5,18.14c6.3,3.77,20.22-10.52,34.32-26.53
			c3.46-3.93,7.09-8.14,10.6-12.21l1.43-1.66c3.83-4.44,8.37-9.67,12.9-14.72c7.66-8.51,14.63-12.44,21.28-12
			c10.39,0.69,18.08,11.91,25.53,22.77c1.06,1.54,2.11,3.08,3.16,4.57c13.81,19.6,32.75,24.76,57.91,15.8l0.36,0.93
			c-2.77,1.16-68.15,29.09-101.38,97.4v31.66c2.13,3.29,44.61,68.63,69.71,97.59c26.56,30.64,28.16,41.02,32.03,66.09
			c1.92,12.44,8.98,35.9,17.15,63.06c8.82,29.33,18.82,62.57,24.94,90.55l0,0c8.45,38.57,18.96,86.58-0.83,115.98
			c-8.66,12.86-22.67,21.03-41.66,24.29c-26.32,4.51-50.84,13.53-74.54,22.25C377.37,719.48,349.32,729.79,321.7,729.8z
			 M225.61,717.09c21.63,0,44.33,1.19,70.09,8.29c35.86,9.89,72.16-3.47,110.6-17.61c23.75-8.74,48.31-17.77,74.72-22.3
			c18.71-3.21,32.5-11.24,41-23.86c19.56-29.05,9.1-76.83,0.69-115.21v0c-6.11-27.94-16.1-61.16-24.92-90.47
			c-8.18-27.2-15.24-50.69-17.18-63.2c-3.84-24.87-5.42-35.16-31.79-65.59c-25.67-29.61-69.43-97.15-69.87-97.83l-0.08-0.12
			l0.05-32.29c27.59-56.8,77.31-85.85,95.3-94.88c-5.45,1.44-10.59,2.15-15.43,2.15c-14.89,0-26.98-6.8-36.64-20.5
			c-1.05-1.5-2.11-3.04-3.17-4.58c-7.31-10.66-14.86-21.68-24.77-22.34c-6.34-0.41-13.03,3.4-20.47,11.67
			c-4.52,5.04-9.05,10.26-12.88,14.7l-1.43,1.66c-3.51,4.07-7.14,8.29-10.61,12.22c-16.62,18.88-29.04,30.64-35.58,26.73
			c-3.97-2.38-4.9-10.02-5.98-18.88c-1.77-14.5-3.77-30.93-19.18-30.93c-8.83,0-16.62-1.43-24.15-2.81
			c-14.01-2.57-27.24-5.01-44.25,2.77c-24.49,11.19-67.32,1.48-72.76,0.17c-0.23,4.1,2.21,9.01,6.79,13.55
			c7.77,7.72,19.3,12.35,28.05,11.25c7.91-1,22.15,12.48,38.63,28.08c16.7,15.81,35.63,33.73,48.51,35.77l2.41,0.38
			c22.84,3.62,24.71,3.91,28.68,11.86c3.88,7.75,31.83,23.58,32.11,23.74l0.25,0.14v28.62l-0.39,0.09
			c-13.55,2.95-34.89,22.1-57.47,42.37c-23.13,20.76-49.34,44.29-72.5,55.36c-42.34,20.24-79.51,71.89-107.49,149.36
			c-10.11,28.01-21.91,42.31-31.39,53.8c-15.22,18.45-25.27,30.64-17.23,81.63c6.06,38.46,17.87,63.64,37.15,79.25
			c16.89,13.67,37.87,18.8,63.54,24.09c21.44,4.42,41.54,4.13,62.83,3.84C214.76,717.16,220.15,717.09,225.61,717.09z
			 M363.29,199.13h-11.64L349.13,129c-4.2-2.94-6.1-10.5-4.61-18.53c0.67-3.58,1.94-6.92,3.68-9.66c2.86-4.48,6.67-6.78,10.17-6.13
			c0.81,0.15,1.61,0.48,2.39,0.97c4.41,2.79,6.43,10.49,4.9,18.73l0,0c-0.7,3.77-2.05,7.23-3.93,10.04
			c0.66,25.69,1.54,73.72,1.55,74.2L363.29,199.13z M352.61,198.13h9.66c-0.1-5.26-0.92-49.62-1.54-73.85l0-0.16l0.09-0.13
			c1.84-2.71,3.18-6.1,3.86-9.79h0c1.43-7.73-0.45-15.17-4.46-17.71c-0.67-0.42-1.35-0.7-2.04-0.83c-3.09-0.57-6.51,1.56-9.15,5.69
			c-1.67,2.63-2.9,5.85-3.54,9.3c-1.44,7.78,0.37,15.05,4.39,17.66l0.22,0.14l0.01,0.26L352.61,198.13z M246.12,97.41
			c-4.2,0-7.61-5.6-7.61-12.49c0-6.89,3.41-12.5,7.61-12.5c4.19,0,7.6,5.61,7.6,12.5C253.72,91.81,250.31,97.41,246.12,97.41z
			 M246.12,73.42c-3.64,0-6.61,5.16-6.61,11.5c0,6.34,2.97,11.49,6.61,11.49c3.64,0,6.6-5.15,6.6-11.49
			C252.72,78.58,249.76,73.42,246.12,73.42z"/>
	</g>
	<g>
		<g>
			<path class="st5" d="M360.74,51.47c-5.65-2.32-8.62,0-8.62,0l-3.98,36.38l0.32,8.81c3.92-4.45,7.96-9.14,12.03-13.86
				C360.54,67.37,360.74,51.47,360.74,51.47z"/>
			<path class="st0" d="M348.12,97.62l-0.35-9.75l4-36.6l0.12-0.1c0.13-0.1,3.2-2.43,8.99-0.05l0.24,0.1l0,0.25
				c0,0.16-0.2,16.07-0.25,31.33v0.14l-1.95,2.26c-3.37,3.9-6.85,7.94-10.17,11.71L348.12,97.62z M352.48,51.69l-3.96,36.21
				l0.28,7.81c3.13-3.56,6.39-7.34,9.54-11l1.77-2.05c0.05-14.15,0.22-28.83,0.25-30.94C355.75,49.91,353.07,51.32,352.48,51.69z"/>
		</g>
		<g>
			<path class="st5" d="M361.22,124.27c-0.18-7.13-0.35-12.58-0.48-14.84c-0.15-2.61-0.22-7.49-0.25-13.35
				c-0.69-0.43-1.42-0.75-2.22-0.9c-3.43-0.63-7.01,1.75-9.66,5.9l0.99,27.65l2.51,69.9h10.65
				C362.78,198.63,361.89,150.22,361.22,124.27z"/>
			<path class="st0" d="M363.16,199.01h-11.4l-0.01-0.36l-3.51-97.67l0.06-0.1c2.83-4.44,6.58-6.71,10.04-6.07
				c0.79,0.15,1.58,0.47,2.35,0.95l0.17,0.11l0,0.21c0.03,6.48,0.12,10.97,0.25,13.34c0.12,2.09,0.28,7.09,0.48,14.86
				c0.66,25.66,1.55,73.88,1.56,74.36L363.16,199.01z M352.49,198.26h9.91c-0.08-4.61-0.92-49.54-1.55-73.98
				c-0.2-7.76-0.36-12.75-0.48-14.83c-0.13-2.36-0.22-6.79-0.25-13.17c-0.63-0.37-1.27-0.62-1.91-0.74
				c-3.11-0.57-6.55,1.53-9.21,5.64L352.49,198.26z"/>
		</g>
	</g>
	<g>
		
			<rect x="320.15" y="214.48" transform="matrix(0.9992 -0.0397 0.0397 0.9992 -8.395 14.5171)" class="st6" width="82.27" height="8.26"/>
	</g>
	<g>
		<path class="st2" d="M347.86,47.6l-2.15,2.59l4.97,5.94c0,0,6.93-11.68,11.29-0.1s5.7-0.89,5.7-0.89l-3.16-5.43
			C357.14,49.09,351.61,48.27,347.86,47.6z"/>
		<path class="st0" d="M365.25,61.45c-1.22,0-2.39-1.64-3.75-5.25c-1.14-3.03-2.53-4.65-4.13-4.79c-3.1-0.28-6.23,4.91-6.26,4.97
			l-0.36,0.61l-5.69-6.8l2.6-3.13l0.29,0.05c4.89,0.88,10.47,1.58,16.6,2.1l0.26,0.02l3.38,5.79l-0.02,0.16
			c-0.15,1.4-0.79,6-2.74,6.25C365.37,61.44,365.31,61.45,365.25,61.45z M357.14,50.4c0.11,0,0.21,0,0.32,0.01
			c2.02,0.18,3.69,2,4.98,5.43c1.69,4.5,2.67,4.61,2.86,4.6c0.77-0.1,1.57-2.74,1.85-5.21l-2.95-5.06
			c-5.94-0.5-11.36-1.19-16.15-2.04l-1.7,2.04l4.26,5.09C351.58,53.86,354.21,50.4,357.14,50.4z"/>
	</g>
	<g>
		<path class="st0" d="M417.27,234.37l-1.39,3.24l-95.4,5.32l-21.42-9.49l27.71,2.18C326.76,235.61,402.04,232.68,417.27,234.37z"/>
	</g>
	<g>
		<polygon class="st7" points="412.62,196.46 320.13,199.78 299.05,207.1 299.05,233.43 320.13,241.02 417.27,234.37 		"/>
		<path class="st0" d="M320.06,241.52l-21.5-7.74v-27.04l21.56-7.46l92.95-3.34l4.78,38.89L320.06,241.52z M299.55,233.08
			l20.64,7.43l96.52-6.61l-4.54-36.93l-91.96,3.31l-20.67,7.17V233.08z"/>
	</g>
	<g>
		<path class="st7" d="M428.58,233.7c0,0,24.61-1.33,45.89,7.32s36.27,39.24,42.57,47.22l16.56,3.99c0,0-31.86-60.52-56.47-73.49
			s-36.66-22.61-55.2-22.28L428.58,233.7z"/>
		<path class="st0" d="M534.56,292.97l-17.81-4.29l-0.11-0.14c-1.39-1.76-3.15-4.54-5.38-8.05c-7.67-12.09-20.5-32.32-36.99-39.02
			c-20.93-8.5-45.43-7.29-45.67-7.28l-0.44,0.02l-6.83-38.26l0.59-0.01c14.72-0.26,25.26,5.63,41.22,14.56
			c4.21,2.35,8.97,5.02,14.22,7.78c24.46,12.89,56.36,73.09,56.68,73.7L534.56,292.97z M517.32,287.79l15.31,3.69
			c-4.25-7.87-33.26-60.46-55.73-72.3c-5.26-2.77-10.03-5.44-14.24-7.79c-15.48-8.66-25.83-14.44-39.8-14.44c-0.11,0-0.22,0-0.33,0
			l6.47,36.23c3.44-0.12,26.08-0.59,45.66,7.37c16.78,6.82,29.72,27.22,37.45,39.41C514.27,283.36,515.98,286.06,517.32,287.79z"/>
	</g>
	<g>
		<polygon class="st8" points="413.57,184.49 412.66,244.87 436.18,245 437.18,183.97 		"/>
		<path class="st0" d="M436.67,245.51l-24.51-0.14l0.93-61.37l24.61-0.54L436.67,245.51z M413.17,244.37l22.51,0.13l0.99-60.02
			l-22.61,0.5L413.17,244.37z"/>
	</g>
	<g>
		
			<rect x="320.15" y="211.3" transform="matrix(0.9992 -0.0397 0.0397 0.9992 -8.395 14.5171)" class="st7" width="82.27" height="14.62"/>
		<path class="st0" d="M320,228.07l-0.62-15.6l0.5-0.02l82.7-3.29l0.62,15.6l-0.5,0.02L320,228.07z M320.42,213.42l0.54,13.6
			l81.2-3.23l-0.54-13.6L320.42,213.42z"/>
	</g>
	<g>
		
			<rect x="320.15" y="214.48" transform="matrix(0.9992 -0.0397 0.0397 0.9992 -8.395 14.5171)" class="st9" width="82.27" height="8.26"/>
		<path class="st0" d="M319.87,224.89l-0.37-9.26l0.5-0.02l82.7-3.29l0.37,9.26l-0.5,0.02L319.87,224.89z M320.54,216.6l0.29,7.26
			l81.2-3.23l-0.29-7.26L320.54,216.6z"/>
	</g>
	<g>
		<polygon class="st7" points="311.46,224.56 320.48,227.55 319.9,212.94 311.46,214.42 		"/>
		<path class="st0" d="M321,228.25l-10.04-3.33V214l9.41-1.65L321,228.25z M311.96,224.2l7.99,2.65l-0.53-13.31l-7.46,1.3V224.2z"/>
	</g>
	<g>
		<path class="st10" d="M398.63,46.72c-1.31-19.23-3.31-34.37-3.31-36.16c0-3.99-15.63-7.32-20.62-7.32
			c-4.99,0-16.29,10.31-18.29,12.97c-1.62,2.15-3.43,23.93-4.06,32.14c2.65,0.43,5.41,0.8,8.25,1.1
			c-0.1-11.85,12.69-16.94,12.69-16.94c1.33,3.24,1.65,9.64,1.28,17.68c-0.99,21.62-6.99,55.11-11.81,71.11
			c-1.22,4.06-2.7,14.51-4.31,28.84c-7.09,63.27-16.6,202.31-16.6,202.31c3.4,6.98,29.1,7.98,29.1,7.98
			c5.64-34.36,12.23-163.18,20.32-219.96c1.31-9.16,2.65-16.46,4.04-21.17C400.84,100.55,400.26,70.51,398.63,46.72z"/>
		<path class="st0" d="M371.28,360.82l-0.33-0.01c-1.06-0.04-25.96-1.09-29.42-8.19l-0.04-0.09l0.01-0.1
			c0.09-1.39,9.59-139.77,16.6-202.33c1.72-15.38,3.18-25.1,4.33-28.91c4.75-15.78,10.8-49.51,11.79-71.02
			c0.38-8.3,0.01-14.06-1.12-17.16c-2.03,0.92-12.2,6.08-12.11,16.44l0,0.42l-0.42-0.04c-2.73-0.29-5.52-0.66-8.27-1.1l-0.34-0.05
			l0.03-0.34c0.86-11.16,2.54-30.2,4.13-32.34c1.9-2.54,13.33-13.12,18.59-13.12c4.92,0,20.99,3.28,20.99,7.69
			c0,0.58,0.23,2.72,0.57,5.95c0.7,6.51,1.86,17.42,2.73,30.18c2.26,33.07,1.14,57.54-3.32,72.71c-1.31,4.44-2.66,11.54-4.02,21.11
			c-4.26,29.9-8.17,80.62-11.62,125.36c-3.1,40.29-6.04,78.34-8.71,94.61L371.28,360.82z M342.25,352.38
			c3.22,6.21,25.41,7.52,28.4,7.67c2.65-16.42,5.57-54.22,8.65-94.22c3.45-44.75,7.36-95.48,11.62-125.41
			c1.39-9.74,2.71-16.68,4.05-21.22c4.44-15.09,5.54-39.47,3.29-72.45c-0.87-12.75-2.03-23.64-2.73-30.15
			c-0.36-3.38-0.58-5.41-0.58-6.03c0-3.49-14.88-6.94-20.24-6.94c-4.81,0-15.98,10.14-17.99,12.82c-1.05,1.4-2.56,13.49-3.96,31.6
			c2.49,0.4,5,0.73,7.48,1c0.19-11.67,12.8-16.82,12.93-16.88l0.34-0.14l0.14,0.34c1.27,3.1,1.71,9.1,1.31,17.84
			c-0.99,21.57-7.06,55.38-11.82,71.2c-1.13,3.76-2.58,13.45-4.3,28.78C351.91,212,342.56,347.91,342.25,352.38z"/>
	</g>
	<g>
		<path class="st11" d="M370.97,360.44c0,0-14.93-12.84-15.27-18.16c-0.34-5.32,7.63-78.48,7.63-78.48l17.15-8.5
			C380.49,255.3,373.28,346.01,370.97,360.44z"/>
		<path class="st0" d="M371.32,361.4l-0.68-0.58c-0.62-0.53-15.09-13.04-15.44-18.5c-0.34-5.3,7.31-75.58,7.64-78.57l0.03-0.27
			l18.19-9.02l-0.07,0.88c-0.07,0.91-7.24,90.89-9.52,105.18L371.32,361.4z M363.8,264.13c-0.53,4.9-7.93,73.07-7.6,78.12
			c0.28,4.42,11.5,14.63,14.41,17.21c2.28-15.85,8.57-94.1,9.31-103.32L363.8,264.13z"/>
	</g>
	<g>
		<path class="st8" d="M346.85,272.72l31.88,5.38c0,0,21.01,51.24-15.98,51.24S346.85,272.72,346.85,272.72z"/>
		<path class="st0" d="M362.75,329.84c-8.13,0-14.14-2.72-17.86-8.09c-4.56-6.56-5.69-16.85-3.36-30.58
			c1.73-10.17,4.82-18.55,4.85-18.63l0.14-0.39l32.56,5.49l0.11,0.26c0.03,0.07,2.99,7.35,4.72,16.29
			c1.61,8.31,2.46,19.8-2.64,27.39C377.61,327.06,371.37,329.84,362.75,329.84z M347.18,273.28c-1.33,3.76-11.38,33.63-1.47,47.9
			c3.53,5.08,9.26,7.66,17.04,7.66c8.27,0,14.22-2.63,17.7-7.8c8.94-13.32-0.95-39.6-2.08-42.49L347.18,273.28z"/>
	</g>
	<g>
		<polygon class="st10" points="330.63,291.05 394.93,301.01 391.38,311 330.63,301.01 		"/>
		<path class="st0" d="M391.63,311.42l-61.37-10.1v-10.71l65.17,10.09L391.63,311.42z M331.01,300.69l60.12,9.89l3.29-9.27
			l-63.41-9.82V300.69z"/>
	</g>
	<g>
		<path d="M393.78,47.06l-0.15,1.89l-8.25-0.66c-1.43-0.12-2.56-0.37-3.38-0.76c-0.82-0.39-1.46-1.03-1.92-1.92
			c-0.46-0.89-0.64-2.02-0.53-3.4c0.11-1.34,0.43-2.41,0.95-3.22c0.53-0.81,1.24-1.37,2.15-1.66c0.9-0.29,2.11-0.38,3.62-0.26
			l8.25,0.66l-0.15,1.89l-8.23-0.66c-1.24-0.1-2.16-0.06-2.77,0.13c-0.61,0.18-1.09,0.54-1.45,1.08c-0.36,0.54-0.58,1.21-0.64,2.02
			c-0.11,1.39,0.12,2.4,0.71,3.04s1.77,1.03,3.56,1.18L393.78,47.06z"/>
		<path d="M378.83,53.09l1.99,0.2l-0.2,1.99l-1.99-0.2L378.83,53.09z"/>
		<path d="M382.75,60.16l-0.06,1.79c-0.72,0-1.33,0.12-1.82,0.37c-0.49,0.25-0.92,0.68-1.28,1.29c-0.36,0.61-0.59,1.32-0.69,2.13
			c-0.09,0.72-0.06,1.36,0.09,1.94s0.39,1.02,0.73,1.33c0.34,0.31,0.73,0.5,1.17,0.55c0.45,0.05,0.85-0.03,1.22-0.25
			c0.36-0.22,0.7-0.61,0.99-1.18c0.2-0.36,0.53-1.18,1-2.45c0.47-1.27,0.88-2.15,1.22-2.63c0.44-0.63,0.94-1.09,1.51-1.36
			c0.57-0.27,1.18-0.36,1.83-0.28c0.72,0.09,1.36,0.37,1.94,0.86s0.97,1.14,1.2,1.96c0.23,0.82,0.28,1.71,0.17,2.67
			c-0.13,1.05-0.41,1.96-0.85,2.72c-0.44,0.76-1.01,1.32-1.72,1.67c-0.71,0.35-1.49,0.49-2.32,0.42l0.09-1.82
			c0.91,0.01,1.63-0.23,2.16-0.73c0.53-0.5,0.86-1.3,0.99-2.39c0.14-1.14,0.03-1.99-0.32-2.56c-0.35-0.57-0.82-0.89-1.41-0.96
			c-0.51-0.06-0.95,0.07-1.33,0.4c-0.37,0.32-0.83,1.22-1.36,2.71c-0.53,1.49-0.96,2.5-1.29,3.04c-0.48,0.78-1.04,1.33-1.67,1.65
			s-1.33,0.44-2.09,0.34c-0.76-0.09-1.44-0.4-2.06-0.91c-0.62-0.51-1.06-1.2-1.33-2.06c-0.27-0.86-0.35-1.79-0.22-2.81
			c0.16-1.29,0.48-2.34,0.96-3.16c0.48-0.82,1.13-1.44,1.94-1.84C380.91,60.23,381.8,60.07,382.75,60.16z"/>
		<path d="M376.12,75.59l1.98,0.29l-0.29,1.98l-1.98-0.29L376.12,75.59z"/>
		<path d="M373.85,89.9l14,3l-0.6,2.79l-10.62,1.19c-0.99,0.11-1.73,0.18-2.21,0.23c0.47,0.27,1.17,0.68,2.09,1.22l9.02,5.44
			l-0.53,2.49l-14-3l0.38-1.79l11.72,2.51l-10.85-6.58l0.36-1.67l12.78-1.5l-11.92-2.55L373.85,89.9z"/>
		<path d="M369.89,106.99l13.13,7.93l-0.36,2.01l-15.12,3.25l0.38-2.12l4.56-0.88l1.05-5.89l-3.99-2.31L369.89,106.99z
			 M374.95,112.1l-0.85,4.78l4.16-0.77c1.27-0.24,2.3-0.4,3.1-0.48c-0.87-0.34-1.72-0.75-2.56-1.24L374.95,112.1z"/>
		<path d="M367.03,124.1l14.17,2.01l-0.27,1.88l-14.18-2.01L367.03,124.1z"/>
		<path d="M366.07,131.1l14.21,1.75l-0.23,1.88l-12.53-1.54l-0.86,7l-1.68-0.21L366.07,131.1z"/>
		<path d="M363.28,155.74l3.41,0.35l0.63-6.18l1.6,0.16l8.57,7.44l-0.15,1.43l-9.23-0.94l-0.2,1.92l-1.6-0.16l0.2-1.92l-3.41-0.35
			L363.28,155.74z M368.3,156.24l6.42,0.65l-5.97-5.11L368.3,156.24z"/>
		<path d="M366.31,163.48l0.07,1.77c-1.01,0.11-1.76,0.38-2.24,0.83s-0.76,1.01-0.82,1.7c-0.08,0.82,0.14,1.55,0.66,2.17
			s1.2,0.97,2.04,1.05c0.8,0.08,1.49-0.12,2.06-0.6c0.57-0.48,0.89-1.12,0.97-1.93c0.03-0.33,0-0.75-0.08-1.25l1.52,0.34
			c-0.02,0.12-0.04,0.21-0.05,0.28c-0.07,0.75,0.06,1.43,0.4,2.07c0.33,0.63,0.9,0.99,1.71,1.06c0.64,0.06,1.19-0.11,1.66-0.5
			c0.46-0.39,0.72-0.94,0.79-1.62c0.06-0.68-0.1-1.27-0.48-1.76c-0.38-0.49-1-0.84-1.84-1.05l0.47-1.72
			c1.15,0.32,2.02,0.89,2.59,1.71s0.81,1.79,0.7,2.92c-0.07,0.78-0.31,1.48-0.7,2.1c-0.39,0.62-0.9,1.08-1.51,1.37
			s-1.24,0.41-1.89,0.35c-0.62-0.06-1.16-0.28-1.64-0.65s-0.83-0.9-1.07-1.58c-0.27,0.83-0.74,1.44-1.39,1.85
			c-0.66,0.41-1.45,0.57-2.37,0.49c-1.25-0.12-2.26-0.67-3.04-1.66c-0.78-0.99-1.11-2.18-0.98-3.56c0.12-1.25,0.59-2.25,1.41-3.01
			S365.11,163.49,366.31,163.48z"/>
		<path d="M368.38,176.74c1.69,0.15,3.03,0.44,4.03,0.88c1,0.44,1.74,1.02,2.24,1.76c0.5,0.73,0.7,1.62,0.61,2.66
			c-0.07,0.76-0.28,1.42-0.64,1.97c-0.36,0.55-0.85,0.99-1.46,1.31s-1.35,0.56-2.2,0.7c-0.85,0.14-1.98,0.15-3.4,0.02
			c-1.67-0.15-3.01-0.44-4.01-0.87c-1-0.43-1.75-1.02-2.25-1.75c-0.5-0.73-0.71-1.62-0.61-2.67c0.12-1.38,0.71-2.41,1.76-3.11
			C363.73,176.81,365.7,176.51,368.38,176.74z M368.22,178.54c-2.34-0.21-3.92-0.07-4.75,0.41c-0.82,0.48-1.27,1.12-1.34,1.93
			s0.26,1.51,0.99,2.13s2.26,1.03,4.6,1.23c2.35,0.21,3.93,0.07,4.75-0.41c0.82-0.48,1.27-1.13,1.34-1.95
			c0.07-0.8-0.21-1.48-0.85-2.02C372.14,179.19,370.56,178.75,368.22,178.54z"/>
		<path d="M367.24,189.76c1.69,0.14,3.03,0.43,4.03,0.86c1,0.43,1.75,1.02,2.25,1.75c0.5,0.73,0.71,1.62,0.62,2.65
			c-0.07,0.76-0.28,1.42-0.63,1.97c-0.36,0.55-0.84,0.99-1.46,1.32c-0.61,0.33-1.34,0.56-2.2,0.71s-1.98,0.16-3.4,0.04
			c-1.67-0.14-3.01-0.43-4.01-0.86c-1-0.43-1.75-1.01-2.25-1.74c-0.5-0.73-0.71-1.62-0.62-2.66c0.12-1.38,0.7-2.41,1.75-3.12
			C362.59,189.84,364.56,189.54,367.24,189.76z M367.09,191.56c-2.34-0.2-3.92-0.06-4.74,0.43c-0.82,0.48-1.27,1.13-1.34,1.93
			c-0.07,0.8,0.27,1.51,1,2.13c0.73,0.61,2.27,1.02,4.6,1.22c2.35,0.2,3.93,0.06,4.75-0.43c0.82-0.48,1.26-1.13,1.33-1.95
			c0.07-0.8-0.22-1.48-0.86-2.01C371.01,192.2,369.43,191.76,367.09,191.56z"/>
		<path d="M366.15,202.77c1.69,0.14,3.03,0.43,4.03,0.86c1,0.43,1.75,1.01,2.25,1.75c0.5,0.73,0.71,1.62,0.62,2.65
			c-0.06,0.77-0.28,1.42-0.63,1.98s-0.84,0.99-1.45,1.32c-0.61,0.33-1.34,0.56-2.2,0.71c-0.85,0.14-1.98,0.16-3.4,0.04
			c-1.67-0.14-3.01-0.42-4.01-0.85c-1-0.43-1.75-1.01-2.26-1.74c-0.5-0.73-0.71-1.62-0.63-2.66c0.12-1.38,0.7-2.42,1.75-3.12
			C361.5,202.86,363.47,202.55,366.15,202.77z M366,204.57c-2.34-0.19-3.92-0.05-4.75,0.43c-0.82,0.48-1.26,1.13-1.33,1.93
			c-0.07,0.8,0.27,1.51,1,2.13c0.73,0.61,2.27,1.02,4.6,1.21c2.35,0.2,3.93,0.05,4.75-0.43c0.82-0.48,1.26-1.13,1.33-1.95
			c0.07-0.8-0.22-1.48-0.86-2.01C369.92,205.2,368.34,204.77,366,204.57z"/>
		<path d="M358.94,224.59l-1.68-0.14l0.79-9.43c0.42,0.02,0.82,0.12,1.2,0.31c0.62,0.29,1.22,0.73,1.8,1.31
			c0.58,0.58,1.23,1.4,1.97,2.47c1.14,1.66,2.06,2.79,2.76,3.4s1.38,0.94,2.04,0.99c0.69,0.06,1.3-0.14,1.82-0.6
			c0.52-0.46,0.81-1.08,0.88-1.88c0.07-0.84-0.12-1.54-0.59-2.09c-0.46-0.55-1.14-0.86-2.04-0.94l0.34-1.79
			c1.33,0.24,2.32,0.79,2.95,1.65s0.9,1.97,0.79,3.33c-0.12,1.37-0.58,2.42-1.41,3.16c-0.83,0.73-1.8,1.05-2.92,0.96
			c-0.57-0.05-1.12-0.21-1.65-0.49c-0.53-0.28-1.08-0.72-1.65-1.31s-1.33-1.56-2.28-2.91c-0.79-1.12-1.34-1.85-1.63-2.17
			c-0.29-0.33-0.59-0.6-0.89-0.82L358.94,224.59z"/>
		<path d="M369.32,229.47l1.68,0.15l-0.8,9.23l-1.36-0.12c-0.89-0.99-2.09-2-3.62-3.03c-1.52-1.03-3.11-1.86-4.76-2.5
			c-1.16-0.45-2.45-0.79-3.86-1.01l0.16-1.8c1.12,0.12,2.46,0.46,4.01,1.01c1.55,0.56,3.03,1.3,4.44,2.21s2.58,1.86,3.51,2.84
			L369.32,229.47z"/>
		<path d="M368.18,242.57l1.68,0.16l-0.87,9.23l-1.36-0.13c-0.88-1-2.08-2.02-3.6-3.06s-3.1-1.88-4.74-2.53
			c-1.16-0.46-2.45-0.81-3.86-1.04l0.17-1.8c1.12,0.12,2.46,0.47,4,1.04c1.55,0.57,3.02,1.32,4.42,2.25
			c1.4,0.93,2.56,1.88,3.49,2.86L368.18,242.57z"/>
	</g>
	<g>
		<path d="M416.12,400.14l0.78,3.42l-14.92,3.41c-2.59,0.59-4.72,0.77-6.38,0.53s-3.14-1.01-4.45-2.33s-2.25-3.21-2.81-5.7
			c-0.55-2.42-0.59-4.49-0.11-6.22c0.48-1.73,1.44-3.1,2.87-4.12c1.43-1.02,3.51-1.84,6.25-2.47l14.92-3.41l0.78,3.42l-14.9,3.41
			c-2.24,0.51-3.85,1.1-4.81,1.76c-0.97,0.66-1.62,1.56-1.97,2.71c-0.34,1.15-0.35,2.45-0.01,3.92c0.57,2.51,1.55,4.17,2.94,4.98
			c1.38,0.81,3.7,0.84,6.94,0.1L416.12,400.14z"/>
		<path d="M392.89,418.99l3.65-0.65l0.65,3.65l-3.65,0.65L392.89,418.99z"/>
		<path d="M404.11,429.94l0.22,3.31c-1.33,0.13-2.42,0.47-3.28,1.02s-1.57,1.43-2.12,2.62c-0.55,1.19-0.84,2.54-0.87,4.05
			c-0.03,1.34,0.14,2.52,0.52,3.55c0.38,1.03,0.9,1.81,1.59,2.32c0.68,0.51,1.43,0.78,2.25,0.8c0.83,0.02,1.56-0.21,2.19-0.68
			c0.63-0.47,1.17-1.25,1.61-2.35c0.29-0.71,0.76-2.27,1.39-4.69c0.64-2.42,1.22-4.11,1.76-5.08c0.69-1.25,1.53-2.18,2.53-2.77
			c0.99-0.6,2.1-0.89,3.32-0.86c1.34,0.03,2.58,0.43,3.72,1.22c1.15,0.78,2.01,1.91,2.58,3.38c0.57,1.47,0.84,3.09,0.8,4.88
			c-0.04,1.96-0.39,3.69-1.06,5.17c-0.66,1.49-1.62,2.62-2.86,3.4c-1.25,0.78-2.64,1.18-4.2,1.21l-0.18-3.36
			c1.68-0.15,2.95-0.73,3.83-1.75c0.88-1.02,1.34-2.55,1.38-4.59c0.04-2.12-0.31-3.67-1.07-4.66s-1.68-1.49-2.78-1.51
			c-0.95-0.02-1.74,0.31-2.37,0.98c-0.63,0.66-1.29,2.41-2,5.24c-0.7,2.83-1.31,4.78-1.81,5.83c-0.74,1.53-1.67,2.65-2.77,3.36
			c-1.11,0.71-2.37,1.05-3.79,1.02c-1.41-0.03-2.73-0.46-3.96-1.29c-1.23-0.83-2.18-2.01-2.84-3.54c-0.66-1.53-0.97-3.23-0.93-5.12
			c0.05-2.4,0.44-4.4,1.17-6s1.81-2.85,3.23-3.74C400.74,430.4,402.34,429.95,404.11,429.94z"/>
		<path d="M392.1,457.87l3.58,0.94l-0.94,3.58l-3.58-0.94L392.1,457.87z"/>
		<path d="M387.51,484.42l26.73,9.5l0.09,3.78l-26.21,11.5l-0.1-3.99l7.94-3.29l-0.28-11.07l-8.09-2.71L387.51,484.42z
			 M398.57,491.78l0.22,8.98l7.26-2.95c2.21-0.9,4.02-1.57,5.44-2.02c-1.71-0.29-3.4-0.73-5.09-1.3L398.57,491.78z"/>
		<path d="M388.4,516.2l26.48-0.67l0.09,3.5l-26.48,0.67L388.4,516.2z"/>
		<path d="M388.74,529.39l26.48,0.08l-0.03,11.74c-0.01,2.36-0.25,4.15-0.73,5.38c-0.48,1.23-1.32,2.21-2.53,2.94
			c-1.21,0.73-2.54,1.09-4,1.09c-1.88-0.01-3.46-0.62-4.75-1.84c-1.29-1.22-2.1-3.1-2.44-5.64c-0.45,0.93-0.89,1.63-1.32,2.11
			c-0.94,1.02-2.12,1.99-3.53,2.9l-7.22,4.59l0.01-4.41l5.52-3.49c1.59-1.02,2.81-1.86,3.66-2.52c0.85-0.66,1.44-1.25,1.78-1.77
			c0.34-0.52,0.57-1.06,0.71-1.6c0.08-0.4,0.13-1.05,0.13-1.95l0.01-4.07l-11.76-0.03L388.74,529.39z M403.53,532.94l-0.02,7.53
			c0,1.6,0.16,2.85,0.49,3.76s0.86,1.59,1.58,2.06c0.73,0.47,1.52,0.71,2.37,0.71c1.25,0,2.29-0.45,3.09-1.36s1.22-2.34,1.22-4.31
			l0.03-8.38L403.53,532.94z"/>
		<path d="M387.79,572.78l26.33,2.88l-0.57,5.24l-19.32,4.19c-1.8,0.38-3.14,0.66-4.04,0.83c0.92,0.4,2.28,1.02,4.07,1.86
			l17.63,8.31l-0.51,4.69l-26.33-2.88l0.37-3.36l22.04,2.41l-21.2-10.06l0.34-3.14l23.25-5.16l-22.41-2.45L387.79,572.78z"/>
		<path d="M384.22,603.48l23.48,15.92l-0.86,3.68l-28.25,4.54l0.91-3.89l8.51-1.19l2.51-10.79l-7.15-4.65L384.22,603.48z
			 M393.07,613.39l-2.04,8.75l7.77-1.03c2.36-0.32,4.29-0.51,5.78-0.58c-1.58-0.71-3.11-1.56-4.6-2.54L393.07,613.39z"/>
		<path d="M376.26,633.51l24.9,9.02l-1.19,3.29l-24.9-9.02L376.26,633.51z"/>
		<path d="M371.95,644.95l23.31,12.57l-1.66,3.09l-20.56-11.09L366.85,661l-2.75-1.48L371.95,644.95z"/>
	</g>
	<g>
		<path d="M458.9,458.03l22.9-0.46l0.16,7.89c0.04,1.78-0.04,3.14-0.25,4.08c-0.28,1.32-0.8,2.45-1.57,3.39
			c-1,1.23-2.28,2.16-3.86,2.79c-1.57,0.63-3.38,0.97-5.42,1.01c-1.74,0.04-3.28-0.14-4.63-0.51c-1.35-0.38-2.47-0.88-3.37-1.49
			c-0.89-0.62-1.6-1.3-2.12-2.04c-0.52-0.75-0.92-1.65-1.2-2.71c-0.28-1.06-0.44-2.29-0.46-3.67L458.9,458.03z M461.66,461l0.1,4.89
			c0.03,1.51,0.19,2.69,0.49,3.54c0.3,0.85,0.71,1.53,1.23,2.03c0.73,0.7,1.71,1.24,2.93,1.62c1.22,0.38,2.7,0.55,4.42,0.51
			c2.39-0.05,4.23-0.48,5.5-1.29c1.27-0.81,2.11-1.79,2.53-2.92c0.29-0.82,0.42-2.13,0.39-3.93l-0.1-4.81L461.66,461z"/>
		<path d="M470.15,483.92c3.68-0.95,6.82-0.7,9.41,0.74c2.59,1.44,4.29,3.73,5.09,6.85c0.53,2.05,0.51,4.02-0.04,5.91
			c-0.56,1.9-1.6,3.5-3.13,4.81c-1.53,1.31-3.4,2.25-5.62,2.82c-2.25,0.58-4.38,0.64-6.39,0.19c-2.01-0.45-3.68-1.39-5.02-2.82
			c-1.34-1.43-2.26-3.11-2.75-5.03c-0.54-2.09-0.51-4.08,0.07-5.99s1.64-3.5,3.17-4.8C466.47,485.32,468.2,484.42,470.15,483.92z
			 M470.88,486.96c-2.67,0.69-4.59,1.95-5.76,3.78s-1.47,3.83-0.92,6c0.57,2.21,1.81,3.83,3.73,4.86c1.92,1.03,4.31,1.17,7.16,0.44
			c1.8-0.46,3.3-1.17,4.49-2.13c1.19-0.96,2-2.12,2.44-3.48s0.47-2.78,0.1-4.24c-0.54-2.08-1.71-3.68-3.52-4.81
			C476.8,486.23,474.22,486.1,470.88,486.96z"/>
		<path d="M467.23,514.79l22-6.38l1.27,4.38l-14.06,9.72c-1.31,0.9-2.29,1.57-2.95,1.99c0.87,0.02,2.16,0.07,3.86,0.15l16.83,0.83
			l1.13,3.92l-21.99,6.38l-0.81-2.81l18.41-5.34l-20.26-1.05l-0.76-2.62l16.88-11.79l-18.72,5.43L467.23,514.79z"/>
		<path d="M475.31,543.37l22.28-5.3l3.83,16.11l-2.63,0.63l-3.13-13.16l-6.82,1.62l2.93,12.32l-2.61,0.62l-2.93-12.32l-7.58,1.81
			l3.26,13.68l-2.63,0.62L475.31,543.37z"/>
		<path d="M487.77,564.57l0.72,2.78c-1.11,0.32-1.98,0.79-2.62,1.4c-0.64,0.61-1.1,1.46-1.38,2.57c-0.28,1.1-0.31,2.29-0.09,3.58
			c0.19,1.14,0.53,2.12,1.01,2.94c0.48,0.82,1.06,1.39,1.72,1.72c0.66,0.33,1.34,0.43,2.04,0.32c0.71-0.12,1.29-0.43,1.75-0.93
			c0.46-0.5,0.79-1.25,0.99-2.26c0.14-0.65,0.28-2.05,0.43-4.21c0.15-2.16,0.38-3.69,0.68-4.6c0.38-1.17,0.95-2.09,1.7-2.76
			c0.75-0.67,1.64-1.09,2.68-1.26c1.14-0.19,2.26-0.04,3.36,0.44c1.1,0.48,2.01,1.3,2.73,2.46c0.72,1.16,1.21,2.5,1.46,4.02
			c0.28,1.67,0.26,3.2-0.07,4.56c-0.33,1.37-0.96,2.49-1.89,3.35c-0.93,0.86-2.06,1.43-3.37,1.7l-0.69-2.83
			c1.4-0.39,2.39-1.09,2.97-2.1c0.58-1.01,0.73-2.38,0.44-4.12c-0.3-1.81-0.85-3.07-1.65-3.78c-0.8-0.72-1.67-1-2.6-0.84
			c-0.81,0.14-1.43,0.54-1.86,1.21c-0.43,0.66-0.71,2.25-0.86,4.78c-0.14,2.52-0.35,4.27-0.61,5.24c-0.39,1.42-0.99,2.51-1.82,3.3
			c-0.83,0.78-1.84,1.27-3.06,1.48c-1.2,0.2-2.39,0.05-3.57-0.46s-2.17-1.36-2.98-2.55c-0.81-1.19-1.34-2.59-1.61-4.21
			c-0.34-2.04-0.33-3.81,0.04-5.29c0.36-1.48,1.08-2.71,2.14-3.7C484.98,565.51,486.26,564.87,487.77,564.57z"/>
		<path d="M484.71,596.28l20.15-1.43l-0.53-7.53l2.69-0.19l1.28,18.11l-2.7,0.19l-0.54-7.56l-20.15,1.43L484.71,596.28z"/>
		<path d="M485.26,613.11l22.89,0.61l-0.08,3.03l-22.89-0.61L485.26,613.11z"/>
		<path d="M490.07,641.37l-1.29,2.85c-2.34-1.06-4.01-2.52-5-4.38c-1-1.86-1.29-3.96-0.87-6.3c0.43-2.43,1.28-4.32,2.54-5.66
			c1.26-1.35,2.9-2.25,4.92-2.71c2.02-0.46,4.1-0.5,6.26-0.11c2.35,0.42,4.32,1.23,5.9,2.44c1.59,1.21,2.69,2.72,3.3,4.54
			s0.74,3.72,0.38,5.71c-0.4,2.26-1.32,4.05-2.74,5.38c-1.42,1.33-3.23,2.11-5.42,2.35l-0.17-3.06c1.73-0.23,3.06-0.78,3.99-1.64
			c0.92-0.86,1.52-2.04,1.79-3.55c0.31-1.73,0.15-3.25-0.47-4.57c-0.62-1.31-1.59-2.33-2.91-3.05c-1.31-0.72-2.72-1.21-4.2-1.48
			c-1.92-0.34-3.64-0.36-5.17-0.06c-1.53,0.3-2.75,0.98-3.67,2.03s-1.5,2.27-1.75,3.64c-0.3,1.67-0.07,3.17,0.69,4.5
			C486.96,639.58,488.25,640.62,490.07,641.37z"/>
	</g>
	<g>
		<path d="M295.88,726.24l-0.64-0.77c0.19-0.16,19.16-16.11,38.45-41.83c17.79-23.72,39.48-60.83,41.85-102.96
			c2.27-40.41,2.13-64.82,2.02-82.65c-0.1-18.02-0.17-29.93,2.43-45.11c4.33-25.26-1.63-66.8-17.73-123.46l0.96-0.27
			c16.14,56.8,22.11,98.49,17.75,123.9c-2.59,15.09-2.52,26.33-2.42,44.93c0.1,17.84,0.24,42.26-2.03,82.71
			c-2.38,42.38-24.18,79.69-42.06,103.52C315.12,710.07,296.07,726.09,295.88,726.24z"/>
	</g>
	<g>
		<path d="M453.78,692.44l-0.99-0.12c0.02-0.18,2.27-18.15,10.21-33.03c7.2-13.51,20.8-50,14.3-70.44
			c-7.6-23.89-27.83-104.78-22.18-140.2c2.52-15.78-7.95-41.21-19.03-68.14c-14.77-35.89-30.04-73.01-19.26-95.78l0.9,0.43
			c-10.59,22.38,4.59,59.28,19.28,94.97c11.13,27.06,21.65,52.62,19.09,68.68c-5.62,35.24,14.56,115.9,22.14,139.74
			c6.6,20.75-7.1,57.59-14.37,71.22C456.03,674.47,453.8,692.26,453.78,692.44z"/>
	</g>
	<g>
		<path d="M146.58,714.38l-0.18-0.98c46.45-8.58,69.41-16.62,70.2-24.57c0.67-6.74-15.45-13.21-29.68-18.91
			c-14.25-5.71-27.71-11.11-27.37-17.17c0.23-4.17,6.73-7.87,20.43-11.65c64.63-17.83,49.51-92.96,40.48-137.85
			c-3.04-15.11-5.44-27.04-3.91-32.4c3.86-13.51,37.46-37.27,62-54.62c12.57-8.89,24.45-17.29,24.78-19.31
			c0.97-5.98-1.9-31.14-4.76-45.55c-2.77-13.96,40.02-107.97,41.84-111.97l0.91,0.42c-0.45,0.98-44.48,97.71-41.77,111.36
			c2.87,14.49,5.75,39.83,4.76,45.9c-0.38,2.33-8.9,8.45-25.19,19.97c-24.42,17.26-57.86,40.91-61.62,54.08
			c-1.46,5.12,0.92,16.95,3.93,31.93c9.1,45.23,24.34,120.93-41.19,139.01c-12.87,3.55-19.49,7.16-19.7,10.74
			c-0.3,5.35,13.45,10.86,26.75,16.19c15.26,6.12,31.05,12.45,30.3,19.94C216.74,697.49,194.17,705.58,146.58,714.38z"/>
	</g>
	<g>
		<path d="M258.38,719.07c0-0.08-0.48-8.56-15.83-20.61c-25.73-20.19-72.63-34.64-107.45-43.2c-46.9-11.53-76.32-30.76-87.42-57.15
			c-11.63-27.63,1.56-52.13,1.7-52.36l0.86,0.51c-2.87,4.87-11.57,27.88-1.64,51.47c10.98,26.08,40.16,45.11,86.74,56.56
			c35.03,8.61,82.22,23.16,108.04,43.54c15.58,12.3,16,20.84,16.01,21.2L258.38,719.07z"/>
	</g>
	<g>
		<path d="M59.11,533.35l-0.82-0.57c9.03-13.14,13.14-16.1,87.94-63.23c51.6-32.51,69.55-75.46,80.28-101.12
			c4.87-11.64,8.08-19.34,12.36-20.65c12.6-3.86,32.01-75.32,32.2-76.04l0.97,0.26c-0.8,2.97-19.75,72.71-32.88,76.73
			c-3.83,1.17-7.15,9.1-11.73,20.08c-10.77,25.77-28.81,68.9-80.67,101.58C72.12,517.42,68.02,520.36,59.11,533.35z"/>
	</g>
	<g>
		<path d="M313.09,187.91c-0.57-0.87-13.79-21.33-7.7-30.97c2.76-4.37,2.21-20.38-1.36-38.92c-3.93-20.44-10.03-37-16.32-44.29
			l0.76-0.65c14.66,16.99,23.71,74.98,17.77,84.39c-5.75,9.1,7.56,29.68,7.7,29.88L313.09,187.91z"/>
	</g>
	<g>
		<path d="M351.63,198.72c-11.01-64.05-38.03-74.85-38.3-74.95l0.35-0.94c0.28,0.1,27.81,11.01,38.94,75.72L351.63,198.72z"/>
	</g>
	<g>
		<path d="M268.62,163.65c-17.95-8.45-22.88-12.68-30.09-34.81c-7.05-21.65-36.64-50.2-36.94-50.49l0.69-0.72
			c0.3,0.29,30.07,29.01,37.2,50.9c7.13,21.9,11.65,25.78,29.56,34.21L268.62,163.65z"/>
	</g>
	<g>
		<g>
			<path class="st2" d="M246.12,97.91c-4.55,0-8.11-5.71-8.11-12.99c0-7.29,3.56-13,8.11-13c4.54,0,8.1,5.71,8.1,13
				C254.22,92.2,250.66,97.91,246.12,97.91z"/>
		</g>
		<g>
			<path class="st12" d="M246.12,72.92c3.92,0,7.1,5.37,7.1,12c0,6.62-3.18,11.99-7.1,11.99c-3.93,0-7.11-5.37-7.11-11.99
				C239.01,78.29,242.19,72.92,246.12,72.92 M246.12,70.92c-5.11,0-9.11,6.15-9.11,14c0,7.84,4,13.99,9.11,13.99
				c5.1,0,9.1-6.15,9.1-13.99C255.22,77.07,251.22,70.92,246.12,70.92L246.12,70.92z"/>
		</g>
	</g>
	<g>
		<path class="st13" d="M292.98,69.13c-4.19,0-8.13-4.88-9.2-11.63c-0.53-3.34-0.26-6.62,0.78-9.23c1.1-2.79,2.94-4.52,5.18-4.88
			c4.48-0.72,8.9,4.36,10.05,11.56c1.15,7.2-1.47,13.39-5.96,14.11C293.55,69.11,293.26,69.13,292.98,69.13z M290.57,45.33
			c-0.17,0-0.34,0.01-0.52,0.04c-1.51,0.24-2.8,1.53-3.64,3.64c-0.9,2.28-1.14,5.19-0.66,8.18c0.94,5.89,4.49,10.43,7.76,9.9
			c3.27-0.52,5.24-5.93,4.3-11.82C296.92,49.69,293.69,45.33,290.57,45.33z"/>
	</g>
</g>
</svg>
