<?xml version="1.0" encoding="utf-8"?>
<!-- Generator: Adobe Illustrator 26.0.0, SVG Export Plug-In . SVG Version: 6.00 Build 0)  -->
<svg version="1.1" id="Layer_1" xmlns="http://www.w3.org/2000/svg" xmlns:xlink="http://www.w3.org/1999/xlink" x="0px" y="0px"
	 viewBox="0 0 695.21 707.18" style="enable-background:new 0 0 695.21 707.18;" xml:space="preserve">
<style type="text/css">
	.st0{fill:#7D7D7C;}
	.st1{fill:#B2ADA6;}
	.st2{fill:#7F7C47;}
	.st3{fill:#FFFFFF;stroke:#000000;stroke-miterlimit:10;}
	.st4{fill:none;stroke:#000000;stroke-miterlimit:10;}
	.st5{fill:#FFFFFF;}
	.st6{fill:#D2D2D1;}
	.st7{fill:#CE944D;}
	.st8{fill:#9E6A2A;}
	.st9{fill:#B77E34;}
	.st10{fill:none;stroke:#D2D2D1;stroke-miterlimit:10;}
	.st11{fill:none;stroke:#D2D2D1;stroke-width:3;stroke-miterlimit:10;}
	.st12{fill:#282828;}
	.st13{fill:none;}
	.st14{fill:#A35625;stroke:#282828;stroke-miterlimit:10;}
	.st15{fill:#515251;}
	.st16{fill:#EC7726;stroke:#282828;stroke-miterlimit:10;}
	.st17{fill:#A09F9F;stroke:#282828;stroke-width:0.75;stroke-miterlimit:10;}
	.st18{fill:#D8D8D8;}
	.st19{fill:#7F4D1F;stroke:#282828;stroke-miterlimit:10;}
	.st20{fill:#4A494A;stroke:#282828;stroke-miterlimit:10;}
	.st21{fill:#FFFFFF;stroke:#282828;stroke-miterlimit:10;}
	.st22{fill:#E8E8E8;stroke:#282828;stroke-width:0.75;stroke-miterlimit:10;}
	.st23{fill:#B7B7B7;stroke:#282828;stroke-miterlimit:10;}
	.st24{fill:#A35625;}
	.st25{fill:#828282;}
	.st26{fill:none;stroke:#606161;stroke-width:2;stroke-miterlimit:10;}
	.st27{fill:#727373;}
	.st28{fill:#7F4D1F;}
	.st29{fill:#A56128;}
	.st30{fill:#91905E;}
	.st31{fill:#44422E;}
	.st32{fill:#A4A268;}
	.st33{fill:none;stroke:#91905E;stroke-width:13;stroke-miterlimit:10;}
	.st34{fill:#C6C6C5;}
	.st35{fill:#EC7726;}
	.st36{fill:#40403F;}
</style>
<g>
	<rect x="497.87" y="315.96" width="40.3" height="179.56"/>
	<polygon points="488.81,372.11 468.93,372.11 468.93,283.02 567.68,283.02 567.68,372.11 546.5,372.11 546.5,307.12 488.81,307.12 
			"/>
	<g>
		<path d="M53.77,101.66v156.23H9.52V101.66H53.77 M63.29,92.15H0v175.26h63.29V92.15L63.29,92.15z"/>
	</g>
	<g>
		<path d="M53.77,409.34v156.23H9.52V409.34H53.77 M63.29,399.82H0v175.26h63.29V399.82L63.29,399.82z"/>
	</g>
	<g>
		<rect x="26.89" y="280.77" width="9.52" height="105.68"/>
		<path d="M695.21,0H26.89v78.78h9.52V9.52h649.3v649.3h-51.36H464.17h-205.5H88.51H36.4v-70.36h-9.52v79.88h61.62v38.85h170.17
			v-38.85h205.5v38.85h170.17v-38.85h60.87V0z M249.16,697.66H98.02v-29.34h151.14V697.66z M624.83,697.66H473.69v-29.34h151.14
			V697.66z"/>
	</g>
	<path d="M354.9,330.97c0-1.38-0.04-2.76-0.1-4.13h24.14c-0.24-6.76-1.05-13.37-2.41-19.79l-23.38,6.1
		c-0.62-3.14-1.4-6.22-2.33-9.23l23.36-6.1c-2.26-7.56-5.28-14.8-8.96-21.62l-20.72,12.43c-1.48-2.82-3.1-5.55-4.85-8.19
		l20.71-12.42c-3.44-5.28-7.3-10.26-11.53-14.89l-17.08,17.08c-2.11-2.37-4.34-4.63-6.69-6.76l17.07-17.07
		c-4.79-4.45-9.96-8.49-15.46-12.08l-12.29,20.8c-2.63-1.76-5.36-3.39-8.17-4.87l12.29-20.8c-6-3.25-12.33-5.98-18.92-8.13
		l-6.53,23.25c-2.99-1.02-6.04-1.88-9.16-2.58l6.53-23.25c-7.1-1.69-14.46-2.72-22.01-3.02v24.14c-1.58-0.08-3.16-0.12-4.76-0.12
		c-1.6,0-3.18,0.04-4.76,0.12V215.7c-7.55,0.31-14.9,1.33-22.01,3.02l6.53,23.25c-3.12,0.71-6.17,1.57-9.16,2.58l-6.53-23.25
		c-6.59,2.16-12.91,4.88-18.92,8.13l12.29,20.8c-2.81,1.49-5.54,3.11-8.17,4.87l-12.29-20.8c-5.5,3.59-10.67,7.64-15.46,12.08
		l17.07,17.07c-2.35,2.14-4.58,4.4-6.69,6.77l-17.08-17.08c-4.23,4.63-8.09,9.61-11.53,14.89l20.71,12.42
		c-1.75,2.64-3.38,5.37-4.85,8.19l-20.72-12.43c-3.69,6.82-6.7,14.06-8.96,21.62l23.36,6.1c-0.93,3.01-1.71,6.09-2.33,9.23
		l-23.38-6.1c-1.35,6.42-2.17,13.03-2.41,19.79h24.14c-0.06,1.37-0.1,2.75-0.1,4.13c0,1.81,0.06,3.6,0.16,5.39H148.4
		c0.31,6.74,1.2,13.33,2.62,19.72l23.37-6.1c0.66,3.13,1.49,6.19,2.46,9.19l-23.39,6.1c2.33,7.49,5.41,14.65,9.14,21.4l20.71-12.42
		c1.51,2.8,3.17,5.51,4.95,8.13l-20.72,12.43c3.45,5.19,7.32,10.08,11.54,14.64l17.07-17.07c2.14,2.35,4.4,4.58,6.77,6.69
		l-17.08,17.08c4.76,4.35,9.89,8.31,15.34,11.83l12.29-20.8c2.64,1.74,5.38,3.35,8.2,4.82l-12.29,20.8
		c5.93,3.17,12.18,5.83,18.68,7.94l6.53-23.25c2.99,1,6.05,1.85,9.17,2.55l-6.53,23.26c7,1.64,14.25,2.64,21.68,2.94V422.1
		c1.58,0.08,3.16,0.12,4.76,0.12c1.6,0,3.18-0.04,4.76-0.12v24.14c7.43-0.3,14.68-1.3,21.68-2.94l-6.54-23.26
		c3.12-0.69,6.18-1.54,9.17-2.55l6.53,23.25c6.5-2.11,12.74-4.77,18.68-7.94L305.64,412c2.82-1.47,5.56-3.08,8.2-4.82l12.29,20.8
		c5.45-3.51,10.58-7.48,15.34-11.83l-17.08-17.08c2.37-2.11,4.63-4.34,6.77-6.69l17.07,17.07c4.23-4.55,8.09-9.45,11.54-14.64
		l-20.72-12.43c1.79-2.61,3.44-5.33,4.95-8.13l20.71,12.42c3.73-6.75,6.81-13.91,9.14-21.4l-23.39-6.1c0.97-3,1.8-6.07,2.46-9.19
		l23.37,6.1c1.42-6.39,2.31-12.98,2.62-19.72h-24.16C354.84,334.57,354.9,332.78,354.9,330.97z M263.65,394.54
		c-35.11,0-63.56-28.46-63.56-63.56c0-35.11,28.46-63.56,63.56-63.56c35.11,0,63.56,28.46,63.56,63.56
		C327.22,366.08,298.76,394.54,263.65,394.54z"/>
</g>
</svg>
