<?xml version="1.0" encoding="UTF-8" standalone="no"?>
<svg
   xmlns:dc="http://purl.org/dc/elements/1.1/"
   xmlns:cc="http://creativecommons.org/ns#"
   xmlns:rdf="http://www.w3.org/1999/02/22-rdf-syntax-ns#"
   xmlns:svg="http://www.w3.org/2000/svg"
   xmlns="http://www.w3.org/2000/svg"
   xmlns:sodipodi="http://sodipodi.sourceforge.net/DTD/sodipodi-0.dtd"
   xmlns:inkscape="http://www.inkscape.org/namespaces/inkscape"
   version="1.1"
   id="Capa_1"
   x="0px"
   y="0px"
   viewBox="0 0 512 512"
   style="enable-background:new 0 0 512 512;"
   xml:space="preserve"
   fill="white"
   sodipodi:docname="left-arrow.svg"
   inkscape:version="1.0.1 (c497b03c, 2020-09-10)"><metadata
   id="metadata878"><rdf:RDF><cc:Work
       rdf:about=""><dc:format>image/svg+xml</dc:format><dc:type
         rdf:resource="http://purl.org/dc/dcmitype/StillImage" /></cc:Work></rdf:RDF></metadata><defs
   id="defs876" /><sodipodi:namedview
   pagecolor="#ffffff"
   bordercolor="#666666"
   borderopacity="1"
   objecttolerance="10"
   gridtolerance="10"
   guidetolerance="10"
   inkscape:pageopacity="0"
   inkscape:pageshadow="2"
   inkscape:window-width="1680"
   inkscape:window-height="909"
   id="namedview874"
   showgrid="false"
   inkscape:zoom="1.2421875"
   inkscape:cx="256"
   inkscape:cy="256"
   inkscape:window-x="0"
   inkscape:window-y="25"
   inkscape:window-maximized="1"
   inkscape:current-layer="Capa_1" />
<g
   id="g841"
   style="fill:#d5d5d5;fill-opacity:1">
	<g
   id="g839"
   style="fill:#d5d5d5;fill-opacity:1">
		<g
   id="g837"
   style="fill:#d5d5d5;fill-opacity:1">
			<path
   d="M256,0C114.615,0,0,114.615,0,256s114.615,256,256,256s256-114.615,256-256S397.385,0,256,0z M256,480     C132.288,480,32,379.712,32,256S132.288,32,256,32s224,100.288,224,224S379.712,480,256,480z"
   id="path833"
   style="fill:#d5d5d5;fill-opacity:1" />
			<path
   d="M292.64,116.8l-128,128c-6.204,6.241-6.204,16.319,0,22.56l128,128l22.56-22.72L198.56,256L315.2,139.36L292.64,116.8z"
   id="path835"
   style="fill:#d5d5d5;fill-opacity:1" />
		</g>
	</g>
</g>
<g
   id="g843">
</g>
<g
   id="g845">
</g>
<g
   id="g847">
</g>
<g
   id="g849">
</g>
<g
   id="g851">
</g>
<g
   id="g853">
</g>
<g
   id="g855">
</g>
<g
   id="g857">
</g>
<g
   id="g859">
</g>
<g
   id="g861">
</g>
<g
   id="g863">
</g>
<g
   id="g865">
</g>
<g
   id="g867">
</g>
<g
   id="g869">
</g>
<g
   id="g871">
</g>
</svg>
