<?xml version="1.0" encoding="utf-8"?>
<!-- Generator: Adobe Illustrator 26.0.0, SVG Export Plug-In . SVG Version: 6.00 Build 0)  -->
<svg version="1.1" id="Layer_1" xmlns="http://www.w3.org/2000/svg" xmlns:xlink="http://www.w3.org/1999/xlink" x="0px" y="0px"
	 viewBox="0 0 1958.32 1016.03" style="enable-background:new 0 0 1958.32 1016.03;" xml:space="preserve">
<style type="text/css">
	.st0{fill:#F7F7F7;stroke:#000000;stroke-width:2;stroke-miterlimit:10;}
	.st1{fill:#878787;}
	.st2{fill:none;stroke:#000000;stroke-width:2;stroke-miterlimit:10;}
	.st3{fill:#F7F7F7;}
	.st4{fill:#FFFFFF;stroke:#000000;stroke-width:3;stroke-miterlimit:10;}
	.st5{fill:#F7F7F7;stroke:#000000;stroke-width:3;stroke-miterlimit:10;}
	.st6{fill:#FFFFFF;}
	.st7{fill:none;stroke:#000000;stroke-width:3;stroke-miterlimit:10;}
	.st8{fill:#E42028;}
	.st9{fill:#F7F8F8;stroke:#010101;stroke-width:2;stroke-miterlimit:10;}
	.st10{fill:none;stroke:#010101;stroke-width:2;stroke-miterlimit:10;}
	.st11{fill:#010101;}
	.st12{fill:#F7F8F8;}
	.st13{fill:#FFFFFF;stroke:#010101;stroke-width:3;stroke-miterlimit:10;}
	.st14{fill:#F7F8F8;stroke:#010101;stroke-width:3;stroke-miterlimit:10;}
	.st15{clip-path:url(#SVGID_00000116210817770691929150000004185654112722520961_);fill:#010101;}
	.st16{clip-path:url(#SVGID_00000096046431194209144450000017427073797461678503_);fill:#FFFFFF;}
</style>
<g>
	<g>
		
			<rect x="115.25" y="78.92" transform="matrix(-1 -4.489488e-11 4.489488e-11 -1 2068.7859 1091.621)" class="st0" width="1838.29" height="933.78"/>
	</g>
	<polygon class="st4" points="1953.54,78.92 1809.75,2.87 6.04,2.87 115.25,78.92 	"/>
	<polygon class="st4" points="115.25,1012.7 6.04,915.98 6.04,2.87 115.25,78.92 	"/>
	<polyline class="st5" points="115.25,78.92 60.65,145.36 60.65,864.41 115.25,1012.7 	"/>
	<polyline class="st5" points="6.04,2.87 60.65,145.36 60.65,864.41 6.04,915.98 	"/>
</g>
<g>
	<g>
		<path class="st8" d="M60.65,154.08c-25.44,0-46.13-20.69-46.13-46.13c0-25.44,20.69-46.13,46.13-46.13s46.13,20.69,46.13,46.13
			C106.78,133.39,86.08,154.08,60.65,154.08z M60.65,64.39c-24.02,0-43.56,19.54-43.56,43.56s19.54,43.56,43.56,43.56
			s43.56-19.54,43.56-43.56S84.67,64.39,60.65,64.39z M60.65,128.38c-11.26,0-20.43-9.16-20.43-20.43s9.16-20.43,20.43-20.43
			s20.43,9.16,20.43,20.43S71.91,128.38,60.65,128.38z M60.65,90.1c-9.85,0-17.86,8.01-17.86,17.86c0,9.85,8.01,17.86,17.86,17.86
			s17.86-8.01,17.86-17.86C78.51,98.11,70.5,90.1,60.65,90.1z"/>
	</g>
</g>
<g>
	<g>
		<path class="st8" d="M60.65,915.98c-25.44,0-46.13-20.69-46.13-46.13c0-25.44,20.69-46.13,46.13-46.13s46.13,20.69,46.13,46.13
			C106.78,895.29,86.08,915.98,60.65,915.98z M60.65,826.29c-24.02,0-43.56,19.54-43.56,43.56s19.54,43.56,43.56,43.56
			s43.56-19.54,43.56-43.56S84.67,826.29,60.65,826.29z M60.65,890.28c-11.26,0-20.43-9.16-20.43-20.43s9.16-20.43,20.43-20.43
			s20.43,9.16,20.43,20.43S71.91,890.28,60.65,890.28z M60.65,852c-9.85,0-17.86,8.01-17.86,17.86c0,9.85,8.01,17.86,17.86,17.86
			s17.86-8.01,17.86-17.86C78.51,860.01,70.5,852,60.65,852z"/>
	</g>
</g>
</svg>
