<?xml version="1.0" encoding="utf-8"?>
<!-- Generator: Adobe Illustrator 26.0.0, SVG Export Plug-In . SVG Version: 6.00 Build 0)  -->
<svg version="1.1" id="Layer_1" xmlns="http://www.w3.org/2000/svg" xmlns:xlink="http://www.w3.org/1999/xlink" x="0px" y="0px"
	 viewBox="0 0 1838.29 933.78" style="enable-background:new 0 0 1838.29 933.78;" xml:space="preserve">
<style type="text/css">
	.st0{fill:#F7F7F7;stroke:#000000;stroke-width:2;stroke-miterlimit:10;}
	.st1{fill:#878787;}
	.st2{fill:none;stroke:#000000;stroke-width:2;stroke-miterlimit:10;}
	.st3{fill:#F7F7F7;}
	.st4{fill:#FFFFFF;stroke:#000000;stroke-width:3;stroke-miterlimit:10;}
	.st5{fill:#F7F7F7;stroke:#000000;stroke-width:3;stroke-miterlimit:10;}
	.st6{fill:#FFFFFF;}
	.st7{fill:none;stroke:#000000;stroke-width:3;stroke-miterlimit:10;}
	.st8{fill:#E42028;}
	.st9{fill:#F7F8F8;stroke:#010101;stroke-width:2;stroke-miterlimit:10;}
	.st10{fill:none;stroke:#010101;stroke-width:2;stroke-miterlimit:10;}
	.st11{fill:#010101;}
	.st12{fill:#F7F8F8;}
	.st13{fill:#FFFFFF;stroke:#010101;stroke-width:3;stroke-miterlimit:10;}
	.st14{fill:#F7F8F8;stroke:#010101;stroke-width:3;stroke-miterlimit:10;}
	.st15{clip-path:url(#SVGID_00000158709361505335034010000017602742189083141276_);fill:#010101;}
	.st16{clip-path:url(#SVGID_00000154418858837643583830000000812895207595547812_);fill:#FFFFFF;}
</style>
<g>
	<rect x="0" y="0" class="st0" width="1838.29" height="933.78"/>
</g>
<polyline class="st7" points="0,174.02 919.14,562.43 1838.29,174.02 "/>
<g>
	<g>
		<path class="st8" d="M1192.63,562.43c-59.45,0-107.82-48.37-107.82-107.82c0-59.45,48.37-107.82,107.82-107.82
			s107.82,48.37,107.82,107.82C1300.45,514.06,1252.08,562.43,1192.63,562.43z M1192.63,352.8c-56.14,0-101.82,45.67-101.82,101.82
			s45.67,101.82,101.82,101.82s101.82-45.67,101.82-101.82S1248.77,352.8,1192.63,352.8z M1192.63,502.36
			c-26.33,0-47.75-21.42-47.75-47.74s21.42-47.75,47.75-47.75s47.74,21.42,47.74,47.75S1218.96,502.36,1192.63,502.36z
			 M1192.63,412.87c-23.02,0-41.75,18.73-41.75,41.75c0,23.02,18.73,41.74,41.75,41.74s41.74-18.73,41.74-41.74
			C1234.37,431.59,1215.65,412.87,1192.63,412.87z"/>
	</g>
</g>
<g>
	<g>
		<path class="st8" d="M651.08,562.43c-59.45,0-107.82-48.37-107.82-107.82c0-59.45,48.37-107.82,107.82-107.82
			S758.9,395.16,758.9,454.61C758.9,514.06,710.53,562.43,651.08,562.43z M651.08,352.8c-56.14,0-101.82,45.67-101.82,101.82
			s45.67,101.82,101.82,101.82S752.9,510.75,752.9,454.61S707.22,352.8,651.08,352.8z M651.08,502.36
			c-26.33,0-47.75-21.42-47.75-47.74s21.42-47.75,47.75-47.75s47.74,21.42,47.74,47.75S677.41,502.36,651.08,502.36z M651.08,412.87
			c-23.02,0-41.75,18.73-41.75,41.75c0,23.02,18.73,41.74,41.75,41.74s41.74-18.73,41.74-41.74
			C692.83,431.59,674.1,412.87,651.08,412.87z"/>
	</g>
</g>
</svg>
