<?xml version="1.0" encoding="utf-8"?>
<!-- Generator: Adobe Illustrator 26.0.1, SVG Export Plug-In . SVG Version: 6.00 Build 0)  -->
<svg version="1.1" id="Layer_1" xmlns="http://www.w3.org/2000/svg" xmlns:xlink="http://www.w3.org/1999/xlink" x="0px" y="0px"
	 viewBox="0 0 738.44 497.66" style="enable-background:new 0 0 738.44 497.66;" xml:space="preserve">
<style type="text/css">
	.st0{fill:#D5D5D5;}
	.st1{fill:#333362;}
	.st2{fill:#7D7D7C;}
	.st3{fill:#B2ADA6;}
	.st4{fill:#7F7C47;}
	.st5{fill:#FFFFFF;stroke:#000000;stroke-miterlimit:10;}
	.st6{fill:none;stroke:#000000;stroke-miterlimit:10;}
	.st7{fill:#FFFFFF;}
	.st8{fill:#D2D2D1;}
	.st9{fill:#CE944D;}
	.st10{fill:#9E6A2A;}
	.st11{fill:#B77E34;}
	.st12{fill:none;stroke:#D2D2D1;stroke-miterlimit:10;}
	.st13{fill:none;stroke:#D2D2D1;stroke-width:3;stroke-miterlimit:10;}
	.st14{fill:#282828;}
	.st15{fill:none;}
	.st16{fill:#A35625;stroke:#282828;stroke-miterlimit:10;}
	.st17{fill:#515251;}
	.st18{fill:#EC7726;stroke:#282828;stroke-miterlimit:10;}
	.st19{fill:#A09F9F;stroke:#282828;stroke-width:0.75;stroke-miterlimit:10;}
	.st20{fill:#D8D8D8;}
	.st21{fill:#7F4D1F;stroke:#282828;stroke-miterlimit:10;}
	.st22{fill:#4A494A;stroke:#282828;stroke-miterlimit:10;}
	.st23{fill:#FFFFFF;stroke:#282828;stroke-miterlimit:10;}
	.st24{fill:#E8E8E8;stroke:#282828;stroke-width:0.75;stroke-miterlimit:10;}
	.st25{fill:#B7B7B7;stroke:#282828;stroke-miterlimit:10;}
	.st26{fill:#A35625;}
	.st27{fill:#828282;}
	.st28{fill:none;stroke:#606161;stroke-width:2;stroke-miterlimit:10;}
	.st29{fill:#727373;}
	.st30{fill:#7F4D1F;}
	.st31{fill:#A56128;}
	.st32{fill:#91905E;}
	.st33{fill:#44422E;}
	.st34{fill:#A4A268;}
	.st35{fill:none;stroke:#91905E;stroke-width:13;stroke-miterlimit:10;}
	.st36{fill:#C6C6C5;}
	.st37{fill:#EC7726;}
	.st38{fill:#40403F;}
</style>
<g>
	<g>
		<path class="st1" d="M738.44,0H0v462.59h66.3v35.08h94.47v-35.08h416.9v35.08h94.47v-35.08h66.3V0z M150.24,489.11H76.82v-26.52
			h73.42V489.11z M661.61,489.11h-73.42v-26.52h73.42V489.11z M727.91,454.03h-55.77h-94.47h-416.9H66.3H10.52V8.55h717.39V454.03z"
			/>
	</g>
	<g>
		<path class="st1" d="M681.02,40.69H57.41v380.66h623.61V40.69z M670.19,412.08H68.24V49.95h601.95V412.08z"/>
	</g>
	<g>
		<g>
			<rect x="549.33" y="159.66" class="st1" width="27.83" height="27.83"/>
		</g>
		<g>
			<rect x="490.38" y="159.66" class="st1" width="27.83" height="27.83"/>
		</g>
		<g>
			<rect x="431.28" y="159.66" class="st1" width="27.83" height="27.83"/>
		</g>
		<g>
			<rect x="549.33" y="217.7" class="st1" width="27.83" height="27.83"/>
		</g>
		<g>
			<rect x="490.38" y="217.7" class="st1" width="27.83" height="27.83"/>
		</g>
		<g>
			<rect x="431.28" y="217.7" class="st1" width="27.83" height="27.83"/>
		</g>
		<g>
			<rect x="549.33" y="275.74" class="st1" width="27.83" height="27.83"/>
		</g>
		<g>
			<rect x="490.38" y="275.74" class="st1" width="27.83" height="27.83"/>
		</g>
		<g>
			<rect x="431.28" y="275.74" class="st1" width="27.83" height="27.83"/>
		</g>
	</g>
	<g>
		<circle class="st1" cx="245.05" cy="227.85" r="47.89"/>
	</g>
	<g>
		<path class="st1" d="M245.05,314.99c-48.05,0-87.14-39.09-87.14-87.14c0-48.05,39.09-87.14,87.14-87.14
			c48.05,0,87.14,39.09,87.14,87.14C332.19,275.9,293.1,314.99,245.05,314.99z M245.05,150.71c-42.54,0-77.14,34.61-77.14,77.14
			c0,42.54,34.61,77.14,77.14,77.14c42.54,0,77.14-34.61,77.14-77.14C322.19,185.31,287.59,150.71,245.05,150.71z"/>
	</g>
</g>
</svg>
