<?xml version="1.0" encoding="utf-8"?>
<!-- Generator: Adobe Illustrator 25.4.1, SVG Export Plug-In . SVG Version: 6.00 Build 0)  -->
<svg version="1.1" id="Layer_1" xmlns="http://www.w3.org/2000/svg" xmlns:xlink="http://www.w3.org/1999/xlink" x="0px" y="0px"
	 viewBox="0 0 228.6 236.55" style="enable-background:new 0 0 228.6 236.55;" xml:space="preserve">
<style type="text/css">
	.st0{fill:#E42028;}
</style>
<g>
	<path class="st0" d="M114.3,226.09c-59.45,0-107.82-48.37-107.82-107.82c0-59.45,48.37-107.82,107.82-107.82
		s107.82,48.37,107.82,107.82C222.12,177.73,173.75,226.09,114.3,226.09z M114.3,16.46c-56.14,0-101.82,45.67-101.82,101.82
		c0,56.14,45.67,101.82,101.82,101.82s101.82-45.67,101.82-101.82C216.12,62.13,170.44,16.46,114.3,16.46z M114.3,166.02
		c-26.33,0-47.75-21.42-47.75-47.74c0-26.33,21.42-47.75,47.75-47.75c26.33,0,47.75,21.42,47.75,47.75
		C162.04,144.6,140.63,166.02,114.3,166.02z M114.3,76.53c-23.02,0-41.75,18.73-41.75,41.75c0,23.02,18.73,41.74,41.75,41.74
		s41.75-18.73,41.75-41.74C156.04,95.26,137.32,76.53,114.3,76.53z"/>
</g>
</svg>
