<?xml version="1.0" encoding="utf-8"?>
<!-- Generator: Adobe Illustrator 25.4.1, SVG Export Plug-In . SVG Version: 6.00 Build 0)  -->
<svg version="1.1" id="Layer_1" xmlns="http://www.w3.org/2000/svg" xmlns:xlink="http://www.w3.org/1999/xlink" x="0px" y="0px"
	 viewBox="0 0 530.44 683.05" style="enable-background:new 0 0 530.44 683.05;" xml:space="preserve">
<style type="text/css">
	.st0{fill:#FFFFFF;}
</style>
<g>
	<g>
		<path class="st0" d="M105.73,469.77h25.28v67.81c0,10.76,0.31,17.74,0.94,20.92c1.08,5.12,3.66,9.24,7.73,12.34
			c4.07,3.1,9.64,4.65,16.7,4.65c7.17,0,12.58-1.46,16.23-4.4c3.64-2.93,5.84-6.53,6.58-10.8c0.74-4.27,1.11-11.36,1.11-21.27
			v-69.26h25.28v65.76c0,15.03-0.68,25.65-2.05,31.86c-1.37,6.21-3.89,11.44-7.56,15.71s-8.58,7.67-14.73,10.21
			c-6.15,2.53-14.18,3.8-24.08,3.8c-11.96,0-21.03-1.38-27.2-4.14c-6.18-2.76-11.06-6.35-14.65-10.76
			c-3.59-4.41-5.95-9.04-7.09-13.88c-1.65-7.17-2.48-17.76-2.48-31.77L105.73,469.77L105.73,469.77z"/>
		<path class="st0" d="M225.81,554.24l24.6-2.39c1.48,8.26,4.48,14.32,9.01,18.19c4.53,3.87,10.63,5.81,18.32,5.81
			c8.14,0,14.28-1.72,18.41-5.17c4.13-3.44,6.19-7.47,6.19-12.08c0-2.96-0.87-5.48-2.61-7.56s-4.77-3.89-9.1-5.42
			c-2.96-1.03-9.71-2.85-20.24-5.47c-13.55-3.36-23.06-7.49-28.53-12.38c-7.69-6.89-11.53-15.29-11.53-25.19
			c0-6.38,1.81-12.34,5.42-17.89c3.62-5.55,8.83-9.78,15.63-12.68s15.02-4.36,24.64-4.36c15.71,0,27.54,3.45,35.49,10.33
			c7.94,6.89,12.11,16.09,12.51,27.59l-25.28,1.11c-1.08-6.43-3.4-11.06-6.96-13.88s-8.9-4.23-16.01-4.23
			c-7.35,0-13.1,1.51-17.25,4.53c-2.68,1.94-4.01,4.53-4.01,7.77c0,2.96,1.25,5.5,3.76,7.6c3.19,2.68,10.93,5.47,23.23,8.37
			c12.3,2.9,21.39,5.91,27.29,9.01c5.89,3.1,10.5,7.35,13.83,12.73s5,12.03,5,19.94c0,7.17-1.99,13.89-5.98,20.16
			c-3.99,6.26-9.62,10.92-16.91,13.96c-7.29,3.05-16.37,4.57-27.24,4.57c-15.83,0-27.99-3.66-36.47-10.97
			C232.53,578.91,227.46,568.24,225.81,554.24z"/>
		<path class="st0" d="M348.88,594.97v-125.2h40.57c15.37,0,25.39,0.63,30.06,1.88c7.17,1.88,13.18,5.97,18.02,12.26
			s7.26,14.42,7.26,24.38c0,7.69-1.4,14.15-4.18,19.39c-2.79,5.24-6.33,9.35-10.63,12.34c-4.3,2.99-8.67,4.97-13.11,5.94
			c-6.04,1.2-14.78,1.79-26.22,1.79h-16.48v47.23h-25.29V594.97z M374.16,490.95v35.53H388c9.96,0,16.62-0.65,19.99-1.96
			c3.36-1.31,5.99-3.36,7.9-6.15c1.91-2.79,2.86-6.03,2.86-9.74c0-4.55-1.34-8.31-4.01-11.27c-2.68-2.96-6.06-4.81-10.16-5.55
			c-3.02-0.57-9.08-0.85-18.19-0.85L374.16,490.95L374.16,490.95z"/>
	</g>
	<g>
		<polygon class="st0" points="371.36,225.01 370.11,226.94 357.19,225.9 516.68,534.72 484.28,670.05 46.16,670.05 13.77,534.72 
			172.72,226.94 156.84,225.01 157.26,228.54 0,533.05 35.91,683.05 494.54,683.05 530.44,533.05 		"/>
		<polygon class="st0" points="252.01,74.3 232.69,74.3 246.33,30.73 242.33,0 215,87.3 253.7,87.3 		"/>
		<polygon class="st0" points="270.44,215.78 163.76,215.78 163.76,182.51 266.11,182.51 264.41,169.51 150.76,169.51 
			150.76,228.78 272.13,228.78 		"/>
		<polygon class="st0" points="374.84,169.51 316.92,169.51 318.8,182.51 371.53,182.51 441.76,220.87 427.98,261.73 375.63,215.78 
			323.6,215.78 325.48,228.78 370.74,228.78 434.06,284.37 457.56,214.69 		"/>
		<polygon class="st0" points="253.77,87.82 252.08,74.82 113.32,74.82 158.33,170.01 172.02,170.01 172.02,168.55 133.85,87.82 		
			"/>
		<polygon class="st0" points="303.26,74.82 305.13,87.82 396.6,87.82 358.42,168.55 358.42,170.01 372.11,170.01 417.13,74.82 		
			"/>
		<path class="st0" d="M346.48,270.37l8.23,49.83h-75.45l-5.91-49.83H346.48 M357.5,257.37h-98.79l9,75.83h102.32L357.5,257.37
			L357.5,257.37z"/>
		<g>
			<polygon class="st0" points="288.97,257.37 257.13,13 290.68,13 325.95,257.37 339.09,257.37 301.93,0 242.33,0 275.86,257.37 
							"/>
			<polygon class="st0" points="336.9,333.21 339.62,352.02 301.3,352.02 298.85,333.21 285.74,333.21 289.88,365.02 354.63,365.02 
				350.04,333.21 			"/>
		</g>
	</g>
</g>
</svg>
