<?xml version="1.0" encoding="utf-8"?>
<!-- Generator: Adobe Illustrator 26.0.0, SVG Export Plug-In . SVG Version: 6.00 Build 0)  -->
<svg version="1.1" id="Layer_1" xmlns="http://www.w3.org/2000/svg" xmlns:xlink="http://www.w3.org/1999/xlink" x="0px" y="0px"
	 viewBox="0 0 530.4 683" style="enable-background:new 0 0 530.4 683;" xml:space="preserve">
<style type="text/css">
	.st0{fill:#FFFFFF;}
</style>
<g>
	<g>
		<polygon class="st0" points="371.4,225 370.1,226.9 357.2,225.9 516.7,534.7 484.3,670 46.2,670 13.8,534.7 172.7,226.9 
			156.8,225 157.3,228.5 0,533 35.9,683 494.5,683 530.4,533 		"/>
		<polygon class="st0" points="252,74.3 232.7,74.3 246.3,30.7 242.3,0 215,87.3 253.7,87.3 		"/>
		<polygon class="st0" points="270.4,215.8 163.8,215.8 163.8,182.5 266.1,182.5 264.4,169.5 150.8,169.5 150.8,228.8 272.1,228.8 
					"/>
		<polygon class="st0" points="374.8,169.5 316.9,169.5 318.8,182.5 371.5,182.5 441.8,220.9 428,261.7 375.6,215.8 323.6,215.8 
			325.5,228.8 370.7,228.8 434.1,284.4 457.6,214.7 		"/>
		<polygon class="st0" points="253.8,87.8 252.1,74.8 113.3,74.8 158.3,170 172,170 172,168.6 133.9,87.8 		"/>
		<polygon class="st0" points="303.3,74.8 305.1,87.8 396.6,87.8 358.4,168.6 358.4,170 372.1,170 417.1,74.8 		"/>
		<path class="st0" d="M346.5,270.4l8.2,49.8h-75.5l-5.9-49.8H346.5 M357.5,257.4h-98.8l9,75.8H370L357.5,257.4L357.5,257.4z"/>
		<g>
			<polygon class="st0" points="289,257.4 257.1,13 290.7,13 326,257.4 339.1,257.4 301.9,0 242.3,0 275.9,257.4 			"/>
			<polygon class="st0" points="336.9,333.2 339.6,352 301.3,352 298.9,333.2 285.7,333.2 289.9,365 354.6,365 350,333.2 			"/>
		</g>
	</g>
</g>
</svg>
